<svg xmlns="http://www.w3.org/2000/svg"><symbol id="unmute" viewBox="0 0 12 18.85"><title>unmute</title><path d="M12 .33L11.21 0 5.29 5.92H0v7h5.29l5.93 5.94.78-.35zm-1 16.9l-5.29-5.31H1v-5h4.71L11 1.63z"/></symbol><symbol id="stop-circle" viewBox="0 0 22 22"><title>stop-circle</title><path d="M11 22a11 11 0 1111-11 11 11 0 01-11 11zm0-21a10 10 0 1010 10A10 10 0 0011 1z"/><path d="M15.5 15.5h-9v-9h9zm-8-1h7v-7h-7z"/></symbol><symbol id="stop_alt" viewBox="0 0 10 10"><title>stop_alt</title><path d="M0 0h10v10H0z"/></symbol><symbol id="skip-back-circle" viewBox="0 0 22 22"><title>skip-back-circle</title><path d="M10.2 14.81l.8-.46v-2.54l5.2 3 .8-.46V7.54l-.8-.46-5.2 3V7.54l-.8-.46-5.9 3.4v.93zM16 8.35v5.19l-4.5-2.6zm-6 0v5.19l-4.5-2.6z"/><path d="M11 0A11 11 0 110 11 11 11 0 0111 0zm0 21A10 10 0 101 11a10 10 0 0010 10z"/></symbol><symbol id="skip-back-15-seconds" viewBox="0 0 16.99 19.51"><title>skip-back-15-seconds</title><path d="M14.5 5.01a8.41 8.41 0 00-6-2.48L10.27.75 9.5.01l-3 3 3 3 .71-.71L8.5 3.52A7.5 7.5 0 111 11.01H0a8.5 8.5 0 1014.5-6z"/><path d="M7.18 5.32l-2.3-2.3L7.18.71 6.48 0 3.46 3.02l3.02 3.01.7-.71zm-.35 8.69V8.06h-1c-.12.79-.68 1.18-1.66 1.18h-.04v.91h1.49v3.86zm3.57-.88a1 1 0 01-.67-.24 1 1 0 01-.31-.65H8.21a1.8 1.8 0 00.63 1.37 2.4 2.4 0 001.61.52 2.15 2.15 0 001.54-.62 2 2 0 00.64-1.5 2.07 2.07 0 00-.5-1.46 1.69 1.69 0 00-1.33-.54 1.61 1.61 0 00-1.17.45l.23-1.35h2.46v-1H8.99L8.4 11.4h1.1a1.14 1.14 0 01.37-.36 1 1 0 01.53-.12 1 1 0 01.76.32 1.2 1.2 0 01.28.8 1.22 1.22 0 01-.29.81.94.94 0 01-.75.28z"/></symbol><symbol id="skip-ahead-circle" viewBox="0 0 22 22"><title>skip-ahead-circle</title><path d="M11 7.65v2.54l-5.2-3-.8.46v6.81l.8.46 5.2-3v2.54l.8.46 5.9-3.4v-.93l-5.9-3.4zm-5 6V8.46l4.5 2.59zm6-5.19l4.5 2.59-4.5 2.6z"/><path d="M11 0a11 11 0 1011 11A11 11 0 0011 0zm0 21a10 10 0 1110-10 10 10 0 01-10 10z"/></symbol><symbol id="skip-ahead-15-seconds" viewBox="0 0 16.99 19.51"><title>skip-ahead-15-seconds</title><path d="M16 11.01a7.51 7.51 0 11-7.5-7.48L6.77 5.28l.73.73 3-3-3-3-.71.71L8.57 2.5A8.49 8.49 0 1017 11.01z"/><path d="M9.81 5.32l.71.71 3.01-3.01L10.52 0l-.71.71 2.31 2.31-2.31 2.3zm-2.98 8.69V8.06h-1c-.12.79-.68 1.18-1.66 1.18h-.04v.91h1.49v3.86zm3.57-.88a1 1 0 01-.67-.24 1 1 0 01-.31-.65H8.21a1.8 1.8 0 00.63 1.37 2.4 2.4 0 001.61.52 2.15 2.15 0 001.54-.62 2 2 0 00.64-1.5 2.07 2.07 0 00-.5-1.46 1.69 1.69 0 00-1.33-.54 1.61 1.61 0 00-1.17.45l.23-1.35h2.46v-1H8.99L8.4 11.4h1.1a1.14 1.14 0 01.37-.36 1 1 0 01.53-.12 1 1 0 01.76.32 1.2 1.2 0 01.28.8 1.22 1.22 0 01-.29.81.94.94 0 01-.75.28z"/></symbol><symbol id="skip_alt" viewBox="0 0 12.7 7.73"><title>skip_alt</title><path d="M6 .47V3L.8 0 0 .47v6.8l.8.47 5.2-3v2.53l.8.47 5.9-3.37v-1L6.8 0z"/></symbol><symbol id="play-circle" viewBox="0 0 22 22"><title>play-circle</title><path d="M11 22a11 11 0 1111-11 11 11 0 01-11 11zm0-21a10 10 0 1010 10A10 10 0 0011 1z"/><path d="M8.3 16.66l-.8-.47V5.91l.8-.46 8.9 5.14v.93zm.2-9.94v8.67l7.5-4.33z"/></symbol><symbol id="play_alt" viewBox="0 0 9.7 11.2"><title>play_alt</title><path d="M.8 0L0 .47v10.28l.8.46 8.9-5.14v-.94z"/></symbol><symbol id="pause-circle" viewBox="0 0 22 22"><title>pause-circle</title><path d="M11 22a11 11 0 1111-11 11 11 0 01-11 11zm0-21a10 10 0 1010 10A10 10 0 0011 1z"/><path d="M9 16l-1 1V6l1-1zm5 0l-1 1V6l1-1z"/></symbol><symbol id="pause_alt" viewBox="0 0 9 10"><title>pause_alt</title><path d="M0 0h3.5v10H0zm5.5 0H9v10H5.5z"/></symbol><symbol id="next-circle" viewBox="0 0 22 22"><title>next-circle</title><path d="M14 15l1-1V7l-1 1zM6 7.65v6.81l.8.46 5.9-3.4v-.93l-5.9-3.4zm1 .81l4.5 2.59-4.5 2.6z"/><path d="M11 0a11 11 0 1011 11A11 11 0 0011 0zm0 21a10 10 0 1110-10 10 10 0 01-10 10z"/></symbol><symbol id="next_alt" viewBox="0 0 9.5 7.73"><title>next_alt</title><path d="M6.5 3.29L.8 0 0 .47v6.8l.8.47 5.7-3.29v2.86h3v-7h-3z"/></symbol><symbol id="mute" viewBox="0 0 17.21 18.85"><title>mute</title><path d="M11.56 0L5.64 5.92H.35v7h1.88l1-1H1.35v-5h4.71l5.29-5.29V3.8l1-1V.33zm-.21 17.22l-4.59-4.59-.7.7 5.51 5.53.78-.35V7.04l-1 1zM0 16.57L16.5.07l.7.71L.7 17.28z"/></symbol><symbol id="back-circle" viewBox="0 0 22 22"><title>back-circle</title><path d="M8 7L7 8v7l1-1zm8 7.35V7.54l-.8-.46-5.9 3.4v.93l5.9 3.4zm-1-.81l-4.5-2.6L15 8.35z"/><path d="M11 22A11 11 0 100 11a11 11 0 0011 11zm0-21A10 10 0 111 11 10 10 0 0111 1z"/></symbol><symbol id="star-solid" viewBox="0 0 24 24"><title>star-solid</title><path d="M12.39 0h-.78L8.94 8.68H.25L0 9.42l7.05 5.41-2.68 8.72.64.45L12 18.63 18.99 24l.64-.45-2.68-8.72L24 9.42l-.25-.74h-8.69L12.39 0z"/></symbol><symbol id="star-regular" viewBox="0 0 24 24"><title>star-regular</title><path d="M12 2.73L13.94 9l.25.83h7.29l-5.24 4-.66.5.25.79 2 6.42-5.08-3.91-.75-.49-.72.55L6.2 21.6l2-6.42.25-.79-.66-.5-5.24-4h7.26l.25-.89L12 2.73M12.39 0h-.78L8.94 8.68H.25L0 9.42l7.05 5.41-2.68 8.72L5 24l7-5.37L19 24l.64-.45L17 14.83l7-5.41-.25-.74h-8.69L12.39 0z"/></symbol><symbol id="heart-solid" viewBox="0 0 24 24"><title>heart-solid</title><path d="M17 1a7 7 0 00-5 2.05A7 7 0 002.05 13L12 23l10-10a7 7 0 00-5-12z"/></symbol><symbol id="heart-regular" viewBox="0 0 24 24"><title>heart-regular</title><path d="M17 2.13a5.86 5.86 0 014.17 1.73 6 6 0 010 8.36L12 21.4l-9.14-9.18a5.9 5.9 0 118.33-8.37l.81.8.81-.8A5.87 5.87 0 0117 2.13M17 1a7 7 0 00-5 2.05A7 7 0 002.05 13L12 23l10-10a7 7 0 00-5-12z"/></symbol><symbol id="bookmark-solid" viewBox="0 0 24 24"><title>bookmark-solid</title><path d="M6.58 24L12 18.55 17.42 24h1.08V0H8.75L5.5 3.27V24h1.08z"/></symbol><symbol id="bookmark-regular" viewBox="0 0 24 24"><title>bookmark-regular</title><path d="M6.58 24L12 18.55 17.42 24h1.08V0H8.75L5.5 3.27V24zm0-20.28L9.2 1.09h8.22v21.37l-4.65-4.69L12 17l-.77.77-4.65 4.69z"/></symbol><symbol id="bell-solid" viewBox="0 0 24 24"><title>bell-solid</title><path d="M22.8 15.63v-3a10.84 10.84 0 00-9-10.13 1 1 0 000-.16 1.8 1.8 0 10-3.6 0 1 1 0 000 .16 10.84 10.84 0 00-9 10.13v3L0 16.84v4.84h9.25a3 3 0 005.5 0H24v-4.84z"/></symbol><symbol id="bell-regular" viewBox="0 0 24 24"><title>bell-regular</title><path d="M12 1.71a.6.6 0 01.6.57v.09l-.1 1.12 1.1.18a9.7 9.7 0 018 9v3.46l.35.36.85.85v3.13H14l-.31.73a1.79 1.79 0 01-3.3 0l-.39-.73H1.2v-3.13l.85-.85.35-.36v-3.46a9.7 9.7 0 018-9l1.1-.18-.1-1.12v-.09a.6.6 0 01.6-.57M12 .5a1.81 1.81 0 00-1.8 1.82 1 1 0 000 .16 10.84 10.84 0 00-9 10.13v3L0 16.84v4.84h9.25a3 3 0 005.5 0H24v-4.84l-1.2-1.21v-3a10.84 10.84 0 00-9-10.13 1 1 0 000-.16A1.81 1.81 0 0012 .5z"/></symbol><symbol id="undo" viewBox="0 0 24 24"><title>undo</title><path d="M2.24 6.86l5.44-5.52L6.85.5 0 7.46l6.85 6.95.83-.84-5.44-5.52h20.59v9.86l-4.34 4.4H2.34L1.17 23.5h17.8L24 18.4V6.86H2.24z"/></symbol><symbol id="cross" viewBox="0 0 24 24"><title>cross</title><path d="M24 .86L23.14 0 12 11.14.86 0 0 .86 11.14 12 0 23.14l.86.86L12 12.86 23.14 24l.86-.86L12.86 12 24 .86z"/></symbol><symbol id="arrow-up" viewBox="0 0 24 24"><title>arrow-up</title><path d="M24 16.7l-.78.8L12 6.09.78 17.5 0 16.7 12 4.5l12 12.2z"/></symbol><symbol id="arrow-right" viewBox="0 0 24 24"><title>arrow-right</title><path d="M7.29 24l-.79-.78L17.91 12 6.5.78 7.29 0 19.5 12 7.29 24z"/></symbol><symbol id="arrow-left" viewBox="0 0 24 24"><title>arrow-left</title><path d="M16.7 0l.8.78L6.09 12 17.5 23.22l-.8.78L4.5 12 16.7 0z"/></symbol><symbol id="arrow-down" viewBox="0 0 24 24"><title>arrow-down</title><path d="M0 7.3l.78-.8L12 17.91 23.22 6.5l.78.8-12 12.2L0 7.3z"/></symbol><symbol id="upload" viewBox="0 0 24 24"><title>upload</title><path d="M24 17v5.51L22.45 24H1.55L0 22.49V17l1.2 1.17V22l.85.83H22l.8-.83v-3.85zM12 0l6.43 6.27-.85.83-5-4.86V17.8L11.43 19V2.24l-5 4.86-.85-.83z"/></symbol><symbol id="sync" viewBox="0 0 24 24"><title>sync</title><path d="M23.37 8.2a12 12 0 01-20.13 12v3.7H2v-6.07h6v1.3H4A10.69 10.69 0 0022.7 12a10.57 10.57 0 00-.56-3.39zM12 0a12 12 0 018.76 3.81V.11h1.29v6.05H16v-1.3h4A10.69 10.69 0 001.85 15.38l-1.23.41A12 12 0 0112 0z"/></symbol><symbol id="social-share" viewBox="0 0 24 24"><title>social-share</title><path d="M20.4 16.8a3.57 3.57 0 00-2.89 1.48L7 13a3.22 3.22 0 000-2l10.32-5.19a3.67 3.67 0 006.48-3.26 3.67 3.67 0 00-7.17 1.14 3.71 3.71 0 00.17 1L6.51 9.88a3.6 3.6 0 100 4.24L17 19.36a3.66 3.66 0 00-.18 1 3.6 3.6 0 103.6-3.6zm-.08-15.6a2.49 2.49 0 11-2.49 2.49 2.48 2.48 0 012.49-2.49zM3.61 14.4A2.4 2.4 0 116 12a2.4 2.4 0 01-2.39 2.4zm16.79 8.4a2.4 2.4 0 112.4-2.4 2.4 2.4 0 01-2.4 2.4z"/></symbol><symbol id="printer" viewBox="0 0 24 24"><title>printer</title><path d="M20.4 13.2l-1.2 1.2h-1.8V24H6.6v-9.6h-3l1.2-1.2zm-4.2 1.2H7.8v8.4h8.4zm-1.2 6l-1.2 1.2H9l1.2-1.2zm0-2.4l-1.2 1.2H9l1.2-1.2zm.85-18L18 2.15V4.8h6v12h-5.4v-1.2h4.2V6H1.2v9.6h4.2v1.2H0v-12h6V0zM21 7.75L19.8 9h-3.6l1.2-1.2zM15.35 1.2H7.2v3.6h9.6V2.65z"/></symbol><symbol id="placeholder" viewBox="0 0 24 24"><title>placeholder</title><path d="M12 0a12 12 0 018.1 3.15l3-3 .74.74-3 3a12 12 0 010 16.22l3 3-.73.73-3-3a12 12 0 01-16.21 0l-3 3-.74-.74 3-3a12 12 0 010-16.22l-3-3 .75-.7 3 3A12 12 0 0112 0zm0 12.74l-7.33 7.34a10.91 10.91 0 0014.67 0zM3.93 4.67a10.89 10.89 0 000 14.67L11.26 12zm16.14 0L12.74 12l7.33 7.34a10.91 10.91 0 002.84-7V12a10.88 10.88 0 00-2.84-7.34zM12 1.09a10.86 10.86 0 00-7.33 2.84L12 11.26l7.33-7.34a10.9 10.9 0 00-7-2.83z"/></symbol><symbol id="map" viewBox="0 0 24 24"><title>map</title><path d="M16.2 0L7.8 3 0 0v21l7.8 3 8.4-3 4.54 1.75L24 20.51V3zM8.4 4.06l7.2-2.57v18.45l-7.2 2.57zM1.2 1.75l6 2.3v18.43l-6-2.3zm21.6 18.12l-2.22 1.53L16.8 20V1.52l6 2.3z"/></symbol><symbol id="map-marker" viewBox="0 0 24 24"><title>map-marker</title><path d="M12 0c2.1 0 4.2.9 5.7 2.4C19.2 4 20 6 20 8.2c0 4.5-4.6 11.1-8 15.8-3.4-4.7-8-11.3-8-15.8C3.9 3.7 7.5.1 12 0zm0 1.2c-3.8.1-6.9 3.2-6.9 7 0 4 4.3 10.2 6.9 13.8 2.6-3.6 6.9-9.9 6.9-13.8 0-3.8-3.1-7-6.9-7zm0 2.3c2.6 0 4.6 2.1 4.6 4.7s-2 4.6-4.6 4.7c-2.6 0-4.6-2.1-4.6-4.7s2-4.7 4.6-4.7zm0 1.2c-1.9 0-3.6 1.5-3.6 3.4s1.5 3.6 3.4 3.6 3.6-1.5 3.6-3.4v-.1c0-1.9-1.5-3.5-3.4-3.5z"/></symbol><symbol id="magnifier" viewBox="0 0 24 24"><title>magnifier</title><path d="M2.74 2.77a9.41 9.41 0 0114.61 11.67l6.65 6.7v1.18L22.32 24h-1.18l-6.68-6.66A9.41 9.41 0 012.74 2.77zm13.84 12.72c-.17.2-.34.39-.52.57s-.36.34-.55.5l6.17 6.14h.11l.91-.91v-.12zM12.52 1.93A8.1 8.1 0 1017.36 11a8.11 8.11 0 00-4.84-9.07zM5.06 5.06L6 6a4.86 4.86 0 003.44 8.3v1.29A6.16 6.16 0 015.06 5.06z"/></symbol><symbol id="magnifier-plus" viewBox="0 0 24 24"><title>magnifier-plus</title><path d="M2.74 2.77a9.41 9.41 0 0114.61 11.67l6.65 6.7v1.18L22.32 24h-1.18l-6.68-6.66A9.41 9.41 0 012.74 2.77zm13.84 12.72c-.17.2-.34.39-.52.57s-.36.34-.55.5l6.17 6.14h.11l.91-.91v-.12zm-.43-10.58a8.1 8.1 0 10-1 10.23 8.09 8.09 0 001-10.23zm-6.09-1v4.86h4.87v1.29h-4.87v4.86H8.77v-4.86H3.91V8.77h4.86V3.91z"/></symbol><symbol id="magnifier-minus" viewBox="0 0 24 24"><title>magnifier-minus</title><path d="M2.74 2.77a9.41 9.41 0 0114.61 11.67l6.65 6.7v1.18L22.32 24h-1.18l-6.68-6.66A9.41 9.41 0 012.74 2.77zm13.84 12.72c-.17.2-.34.39-.52.57s-.36.34-.55.5l6.17 6.14h.11l.91-.91v-.12zM12.52 1.93A8.1 8.1 0 1017.36 11a8.11 8.11 0 00-4.84-9.07zm1.76 6.84v1.29H4.55V8.77z"/></symbol><symbol id="house" viewBox="0 0 24 24"><title>house</title><path d="M22.5 24h-7.6v-9.3H9.1V24H1.5V10.4L12 0l10.5 10.4zm-6.4-1.2h5.2V10.9L12 1.6l-9.3 9.3v11.9h5.2v-9.3h8.2z"/></symbol><symbol id="hook" viewBox="0 0 24 24"><title>hook</title><path d="M7.74 20.5L0 12.82l.86-.86 6.88 6.83L23.14 3.5l.86.86L7.74 20.5z"/></symbol><symbol id="fingerprint" viewBox="0 0 24 24"><title>fingerprint</title><path d="M9.62 21.74l.38.39c.37.38.74.74 1.11 1.09l-.77.78c-.37-.35-.74-.72-1.11-1.1l-.38-.4zM9 16.55l.66.95a25.09 25.09 0 005.46 5.57l-.77.77a26.91 26.91 0 01-5-4.87 8.72 8.72 0 01-2.28 3.12l-.78-.78.07-.05a7.38 7.38 0 002.3-3.61zm4.85 1.75a26.9 26.9 0 003.82 3.25l-.78.78A28.4 28.4 0 0113 19.08zM9.35 6a5.92 5.92 0 016.41 1l-.76.77a4.9 4.9 0 00-8.08 3.76 10.87 10.87 0 00.18 1.61c.31 2 .73 4.74-2 7.05l-.56.46-.77-.78.64-.53c2.12-1.78 2-3.81 1.68-5.65L6 13.31a13.27 13.27 0 01-.19-1.78A6 6 0 019.35 6zm3 5.26a19 19 0 006.05 7.38l-.78.78a19.76 19.76 0 01-6.24-7.67zm-1.94-2.7a3.24 3.24 0 014.38 1.47 16.52 16.52 0 005.86 6.88l-.78.79a17.61 17.61 0 01-6.06-7.18 2.17 2.17 0 00-3.81-.2 2.2 2.2 0 00-.13 2.19 23.2 23.2 0 002.91 4.64l-.78.78A24.42 24.42 0 018.9 13a3.31 3.31 0 011.46-4.41zm-6.17 3.52c0 .5.1 1 .17 1.49.28 1.82.39 3-.64 4.11L3 16.91c.63-.69.61-1.39.34-3.18a14.34 14.34 0 01-.19-1.65h1.09zm12.54-3.91a4.4 4.4 0 01.39.66 13.33 13.33 0 003.83 5l-.77.78a14 14 0 01-4-5.25A4.05 4.05 0 0016 9l.72-.73zm-5-5.42A8.62 8.62 0 0119.6 7.6a15.83 15.83 0 001.17 2l-.77.77a14.94 14.94 0 01-1.37-2.27 7.6 7.6 0 00-14.35 2.33H3.19a8.71 8.71 0 018.63-7.68zM6.7 1.22a11.33 11.33 0 0112.63 1.63l-.77.78A10.26 10.26 0 007.19 2.2a10.63 10.63 0 00-2.41 1.68L4 3.11a11.4 11.4 0 012.7-1.89z"/></symbol><symbol id="file" viewBox="0 0 24 24"><title>file</title><path d="M16.5 0H3v24h18V4.36zM18 3l1.46 1.41H16.5V1.54zM4.17 23V1.09h11.21v4.36h4.5v17.46z"/></symbol><symbol id="eye-open" viewBox="0 0 24 24"><title>eye-open</title><path d="M11.32 5.54a6.18 6.18 0 011.36 0c6.29.38 10.84 5.87 11 6.12L24 12l-.28.34c-.2.25-4.75 5.74-11 6.12a6.18 6.18 0 01-1.36 0C5 18.08.48 12.59.28 12.34L0 12l.28-.34c.2-.25 4.72-5.74 11.04-6.12zm.68 1A5.42 5.42 0 1017.38 12 5.4 5.4 0 0012 6.58zm-4.87 1.2A19.43 19.43 0 001.41 12a19.43 19.43 0 005.72 4.26 6.5 6.5 0 010-8.52zm9.74 0a6.5 6.5 0 010 8.52A19.43 19.43 0 0022.59 12a19.43 19.43 0 00-5.72-4.26zM12 9.29A2.71 2.71 0 119.31 12 2.7 2.7 0 0112 9.29zm0 1.09A1.62 1.62 0 1013.61 12 1.61 1.61 0 0012 10.38z"/></symbol><symbol id="eye-close" viewBox="0 0 24 24"><title>eye-close</title><path d="M21.31 2l.76.76L2.69 22l-.76-.76zm-2.55 5.56a20 20 0 015 4.1L24 12l-.28.34c-.2.24-4.75 5.66-11 6h-.68a12 12 0 01-3.61-.56l.34-.33.8-.8a5.61 5.61 0 001.79.58c.23 0 .45.05.68.05A5.38 5.38 0 0017.38 12a5.1 5.1 0 00-.63-2.45l.81-.8a6.33 6.33 0 01-.69 7.45 19.24 19.24 0 005.72-4.2A19.74 19.74 0 0018 8.35zM12 5.59a12 12 0 013.61.56l-.34.33-.8.8a5.61 5.61 0 00-1.79-.58H12A5.38 5.38 0 006.62 12a5.1 5.1 0 00.63 2.45l-.81.8a6.33 6.33 0 01.69-7.45A19.24 19.24 0 001.41 12 19.74 19.74 0 006 15.65l-.8.79a20 20 0 01-5-4.1L0 12l.28-.34c.2-.24 4.75-5.66 11-6 .26-.06.49-.07.72-.07zm2.65 6a1.55 1.55 0 010 .37A2.67 2.67 0 0112 14.67a2.31 2.31 0 01-.37 0zM12 9.33a2.31 2.31 0 01.37 0l-3 3a1.55 1.55 0 010-.37A2.67 2.67 0 0112 9.33z"/></symbol><symbol id="download" viewBox="0 0 24 24"><title>download</title><path d="M24 17v5.51L22.45 24H1.55L0 22.49V17l1.2 1.17V22l.85.83H22l.8-.83v-3.85zM12.63 0v16.73l5-4.85.85.83L12 19l-6.39-6.29.85-.83 5 4.85V1.17z"/></symbol><symbol id="crosshair" viewBox="0 0 24 24"><title>crosshair</title><path d="M12.55 18.55v4.36L11.45 24v-4.36zm9.12-4.91a9.82 9.82 0 01-8 8v-1.1a8.75 8.75 0 006.93-6.93h1.1zm-18.24 0a8.75 8.75 0 006.93 6.93v1.1a9.82 9.82 0 01-8-8h1.1zM12 10.36A1.64 1.64 0 1110.36 12 1.65 1.65 0 0112 10.36zm-6.55 1.09l-1.09 1.1H0l1.09-1.1zm18.55 0l-1.09 1.1h-4.36l1.09-1.1zM10.36 2.33v1.1a8.75 8.75 0 00-6.93 6.93h-1.1a9.82 9.82 0 018-8zm3.28 0a9.82 9.82 0 018 8h-1.1a8.75 8.75 0 00-6.93-6.93zM12.55 0v4.36l-1.1 1.09V1.09z"/></symbol><symbol id="controls" viewBox="0 0 24 24"><title>controls</title><path d="M16.36 16.09V18H24l-1.09 1.09h-6.55V21h-4.91v-1.91H0L1.09 18h10.36v-1.91zm-1.09 1.09h-2.72v2.73h2.72zM8.73 9.55v1.9H24l-1.09 1.1H8.73v1.9H3.82v-1.9H0l1.09-1.1h2.73v-1.9zm-1.09 1.09H4.91v2.72h2.73zM20.18 3v1.91H24L22.91 6h-2.73v1.91h-4.91V6H0l1.09-1.09h14.18V3zm-1.09 1.09h-2.73v2.73h2.73z"/></symbol><symbol id="cogwheel" viewBox="0 0 24 24"><title>cogwheel</title><path d="M13.65.12l.41.05.32 2.56a9.51 9.51 0 012.25.89l2-1.63.34.24a12.28 12.28 0 012.61 2.53l.25.33-1.58 2a9.1 9.1 0 011 2.22l2.57.25.06.41a11.69 11.69 0 01.05 3.64l-.05.41-2.56.32a9.51 9.51 0 01-.89 2.25l1.63 2-.24.34a12.28 12.28 0 01-2.53 2.61l-.33.25-2-1.58a9.5 9.5 0 01-2.22 1l-.25 2.56-.41.07A12.06 12.06 0 0112 24a11.45 11.45 0 01-1.65-.12l-.41-.05-.32-2.56a9.51 9.51 0 01-2.25-.89L5.38 22 5 21.77a12.28 12.28 0 01-2.61-2.53l-.25-.33 1.58-2a9.1 9.1 0 01-1-2.22L.23 14.4.17 14a12 12 0 01-.06-3.64l.06-.41 2.56-.32a9.34 9.34 0 01.89-2.25L2 5.38 2.23 5a12.28 12.28 0 012.53-2.57l.33-.25 2 1.58a8.93 8.93 0 012.22-1L9.6.24l.4-.07a11.7 11.7 0 013.65-.05zM10.6 1.18l-.24 2.49-.36.09a8.28 8.28 0 00-2.61 1.12l-.33.21-2-1.53a10.8 10.8 0 00-1.7 1.78L5 7.27l-.2.33a8.28 8.28 0 00-1 2.62l-.08.38-2.47.32A9.91 9.91 0 001.09 12a10.7 10.7 0 00.09 1.39l2.49.25.09.38a8.28 8.28 0 001.12 2.59l.21.32-1.53 2a10.35 10.35 0 001.78 1.72l1.93-1.58.33.2a8.28 8.28 0 002.62 1.05l.38.08.32 2.47a10.3 10.3 0 002.48 0l.24-2.49.38-.09a8.28 8.28 0 002.59-1.12l.32-.21 2 1.53a10.8 10.8 0 001.73-1.78l-1.59-1.93.2-.33a8.37 8.37 0 001.05-2.62l.08-.38 2.47-.32a9.91 9.91 0 00.04-1.13 11 11 0 00-.09-1.4l-2.49-.24-.09-.36a8.28 8.28 0 00-1.12-2.59l-.21-.32 1.53-2a10.8 10.8 0 00-1.78-1.73L16.73 5l-.33-.2a8.37 8.37 0 00-2.62-1l-.38-.08-.32-2.47a10.3 10.3 0 00-2.48-.07zM12 6.55A5.45 5.45 0 116.55 12 5.45 5.45 0 0112 6.55zm0 1.09A4.36 4.36 0 1016.36 12 4.36 4.36 0 0012 7.64z"/></symbol><symbol id="clock" viewBox="0 0 24 24"><title>clock</title><path d="M12 0A12 12 0 110 12 12 12 0 0112 0zm0 1.09A10.91 10.91 0 1022.91 12 10.93 10.93 0 0012 1.09zm.55 2v8.81l3.55 3.55V17l-4.65-4.65V4.19c.31-.29.75-.75 1.1-1.12z"/></symbol><symbol id="camera" viewBox="0 0 24 24"><title>camera</title><path d="M16.36 5.12L14.18 3H9.82L7.64 5.12H0V21h24V5.12zM7.64 6.18h.45l.32-.31 1.86-1.81h3.46l1.86 1.81.32.31h7v2.64h-7.64a5.46 5.46 0 00-6.54 0H1.09V6.18zm-6.55 3.7h6.57a5.08 5.08 0 000 6.36H1.09zm6.55 3.18a4.36 4.36 0 018.72 0A4.29 4.29 0 0112 17.29a4.29 4.29 0 01-4.36-4.23zm9.81 0a5.13 5.13 0 00-1.11-3.18h6.57v6.36h-6.57a5.15 5.15 0 001.11-3.18zM1.09 19.94v-2.65h7.64a5.49 5.49 0 006.54 0h7.64v2.65z"/></symbol><symbol id="calendar" viewBox="0 0 24 24"><title>calendar</title><path d="M8.4 0v1.76h7.2V0h3.6v1.76H24V24H4.65L0 19.46V1.76h4.8V0zm14.4 8.2H1.2V19l2 1.92 2 1.93h17.6zm-3.6 10L18 19.32H4.8L6 18.15zm0-3.52L18 15.8H4.8L6 14.63zm0-3.51L18 12.29H4.8L6 11.12zM4.8 2.93H1.2V7h21.6V2.93h-3.6v1.75h-3.6V2.93H8.4v1.75H4.8zM18 1.17h-1.2v2.34H18zm-10.8 0H6v2.34h1.2z"/></symbol><symbol id="bars-horizontal" viewBox="0 0 24 24"><title>bars-horizontal</title><path d="M24 17.42l-1.09 1.08H0l1.09-1.08zm0-6l-1.09 1.08H0l1.09-1.08zm0-6l-1.09 1.16H0L1.09 5.5z"/></symbol><symbol id="arrows-vertical" viewBox="0 0 24 24"><title>arrows-vertical</title><path d="M7.36.57v21.24l5.39-5.31.82.81L6.78 24 0 17.31l.82-.81 5.39 5.31V1.71zM17.22 0L24 6.69l-.82.81-5.39-5.31v20.1l-1.15 1.14V2.19L11.25 7.5l-.82-.81z"/></symbol><symbol id="arrows-expand" viewBox="0 0 24 24"><title>arrows-expand</title><path d="M24 8.4V0h-8.4v1.2h6.35L12 11.15 2.05 1.2H8.4V0H0v8.4h1.2V2.05L11.15 12 1.2 21.95V15.6H0V24h7.8v-1.2H2.05L12 12.85l9.95 9.95H15.6V24H24v-8.4h-1.2v6.35L12.85 12l9.95-9.95V8.4H24z"/></symbol><symbol id="arrow-right-circle" viewBox="0 0 24 24"><title>arrow-right-circle</title><path d="M12 0A12 12 0 110 12 12 12 0 0112 0zm0 1.09A10.91 10.91 0 1022.91 12 10.93 10.93 0 0012 1.09zm-1.8 5.07L16 12l-5.8 5.84-.77-.77L14.5 12 9.43 6.93z"/></symbol><symbol id="arrow-left-circle" viewBox="0 0 24 24"><title>arrow-left-circle</title><path d="M12 0A12 12 0 110 12 12 12 0 0112 0zm0 1.09A10.91 10.91 0 1022.91 12 10.92 10.92 0 0012 1.09zm1.8 5.07l.77.77L9.5 12l5.07 5.07-.77.77L8 12z"/></symbol><symbol id="questionmark-circle" viewBox="0 0 24 24"><title>questionmark-circle</title><path d="M12 0A12 12 0 110 12 12 12 0 0112 0zm0 1.09A10.91 10.91 0 1022.91 12 10.92 10.92 0 0012 1.09zm1 14.71v1.91h-2.07V15.8zm-.81-9.25a3.4 3.4 0 012.4.84 2.92 2.92 0 01.93 2.24 3 3 0 01-.3 1.4 4.38 4.38 0 01-1.09 1.18 4 4 0 00-1 1.12 3 3 0 00-.28 1.42h-1.69v-.06a4.42 4.42 0 01.31-1.91 3 3 0 011-1.23 4.17 4.17 0 00.87-.86 1.69 1.69 0 00.26-1 1.73 1.73 0 00-.45-1.2A1.36 1.36 0 0012.09 8a1.69 1.69 0 00-1.35.56 2.56 2.56 0 00-.48 1.71H8.5a3.77 3.77 0 011-2.69 3.52 3.52 0 012.67-1.03z"/></symbol><symbol id="information-circle" viewBox="0 0 24 24"><title>information-circle</title><path d="M12 0A12 12 0 110 12 12 12 0 0112 0zm0 1.09A10.91 10.91 0 1022.91 12 10.92 10.92 0 0012 1.09zm.88 8.47v7.89h-1.74v-6.8h-.87V9.56zm0-3V8.2h-1.74V6.55z"/></symbol><symbol id="hook-circle" viewBox="0 0 24 24"><title>hook-circle</title><path d="M12 0A12 12 0 110 12 12 12 0 0112 0zm0 1.09A10.91 10.91 0 1022.91 12 10.92 10.92 0 0012 1.09zm6.16 6.16l.77.77-9.11 9.11-4.75-4.74.77-.78 4 4z"/></symbol><symbol id="exclamation-triangle" viewBox="0 0 24 24"><title>exclamation-triangle</title><path d="M12.6 1L24 21.9l-.7 1.1H.6L0 21.9 11.4 1zM12 2.3L1.3 21.9h21.4zm1 15.5v1.9h-2v-1.9zm0-9.1v3.2l-.5 4.8h-.9l-.6-4.8V8.7z"/></symbol><symbol id="exclamation-circle" viewBox="0 0 24 24"><title>exclamation-circle</title><path d="M12 0A12 12 0 110 12 12 12 0 0112 0zm0 1.2A10.8 10.8 0 1022.8 12 10.81 10.81 0 0012 1.2zm.92 14.92v2H11v-2zm.16-10.28l-.48 8.68h-1.32L11 5.84z"/></symbol><symbol id="conversation-ballons" viewBox="0 0 24 24"><title>conversation-ballons</title><path d="M16.6.5v7.9H24v10.9h-3.1v3.8l-1 .4-4.3-4.2h-3.9v-4.8h-1l-4.8 4.7-1-.4v-4.4H0V3.3L2.8.5zm6.2 9.1h-8.4l-1.5 1.5v7h3.2l3.5 3.5v-3.5h3.1zm-4.3 6.6v1.2h-1.2v-1.2zM15.4 1.7h-12L1.2 3.8v9.4h4.9v4l4.1-4h1.5v-2.7l2.2-2.2h1.5zm3.1 9.7V15h-1.2v-3.6zm-9.9 0v1.2H7.4v-1.2zm1.5-7.9l1 1v2.3L8.6 9.2v1H7.4V8.7l2.5-2.4V5l-.3-.2H6.4l-.2.2v1.3l.4.4-.9.9-.8-.8V4.5l1-1z"/></symbol></svg>