<svg xmlns="http://www.w3.org/2000/svg" viewBox="0 0 24 24"><path d="M12 23a11.09 11.09 0 01-1.51-.106l-.38-.052-.296-2.34a8.718 8.718 0 01-2.061-.819L5.93 21.18l-.313-.222a11.053 11.053 0 01-2.388-2.32l-.232-.305 1.447-1.867a8.682 8.682 0 01-.879-2.035l-2.35-.232-.063-.378a10.903 10.903 0 01-.047-3.329l.052-.38L3.5 9.815a8.627 8.627 0 01.818-2.062L2.82 5.93l.223-.312a11.048 11.048 0 012.32-2.389l.306-.231 1.866 1.446a8.728 8.728 0 012.034-.879l.233-2.35.378-.062a10.887 10.887 0 013.33-.047l.38.052.296 2.34a8.718 8.718 0 012.061.819L18.07 2.82l.313.222a11.053 11.053 0 012.388 2.32l.232.305-1.447 1.867a8.682 8.682 0 01.879 2.035l2.35.232.063.378a10.903 10.903 0 01.047 3.329l-.052.38-2.342.296a8.627 8.627 0 01-.818 2.062l1.497 1.823-.223.312a11.048 11.048 0 01-2.32 2.389l-.306.231-1.866-1.446a8.728 8.728 0 01-2.034.879l-.233 2.35-.378.062A11.09 11.09 0 0112 23zm-.994-1.051a9.802 9.802 0 002.273-.033l.225-2.277.345-.084a7.748 7.748 0 002.377-1.027l.297-.193 1.809 1.403a9.994 9.994 0 001.584-1.631l-1.451-1.768.184-.303a7.69 7.69 0 00.955-2.407l.075-.347 2.27-.288c.033-.337.051-.67.051-.994a10.152 10.152 0 00-.083-1.279l-2.28-.224-.083-.345a7.691 7.691 0 00-1.026-2.377l-.192-.297 1.402-1.81a10.029 10.029 0 00-1.63-1.584l-1.77 1.45-.302-.183a7.73 7.73 0 00-2.407-.956l-.347-.074-.288-2.27a9.722 9.722 0 00-2.273.033l-.225 2.277-.345.084a7.748 7.748 0 00-2.377 1.027l-.297.193-1.809-1.403a9.994 9.994 0 00-1.584 1.631l1.451 1.768-.184.303a7.69 7.69 0 00-.955 2.407l-.075.347-2.27.288c-.033.337-.051.67-.051.994a10.152 10.152 0 00.083 1.279l2.28.224.083.345a7.691 7.691 0 001.026 2.377l.192.297-1.402 1.81a10.029 10.029 0 001.63 1.584l1.77-1.45.302.183a7.73 7.73 0 002.407.956l.347.074z"/><path d="M12 17a5 5 0 115-5 5.006 5.006 0 01-5 5zm0-9a4 4 0 104 4 4.004 4.004 0 00-4-4z"/></svg>