<svg xmlns="http://www.w3.org/2000/svg" viewBox="0 0 24 24"><path d="M13.65.12l.41.05.32 2.56a9.51 9.51 0 012.25.89l2-1.63.34.24a12.28 12.28 0 012.61 2.53l.25.33-1.58 2a9.1 9.1 0 011 2.22l2.57.25.06.41a11.69 11.69 0 01.05 3.64l-.05.41-2.56.32a9.51 9.51 0 01-.89 2.25l1.63 2-.24.34a12.28 12.28 0 01-2.53 2.61l-.33.25-2-1.58a9.5 9.5 0 01-2.22 1l-.25 2.56-.41.07A12.06 12.06 0 0112 24a11.45 11.45 0 01-1.65-.12l-.41-.05-.32-2.56a9.51 9.51 0 01-2.25-.89L5.38 22 5 21.77a12.28 12.28 0 01-2.61-2.53l-.25-.33 1.58-2a9.1 9.1 0 01-1-2.22L.23 14.4.17 14a12 12 0 01-.06-3.64l.06-.41 2.56-.32a9.34 9.34 0 01.89-2.25L2 5.38 2.23 5a12.28 12.28 0 012.53-2.57l.33-.25 2 1.58a8.93 8.93 0 012.22-1L9.6.24l.4-.07a11.7 11.7 0 013.65-.05zM10.6 1.18l-.24 2.49-.36.09a8.28 8.28 0 00-2.61 1.12l-.33.21-2-1.53a10.8 10.8 0 00-1.7 1.78L5 7.27l-.2.33a8.28 8.28 0 00-1 2.62l-.08.38-2.47.32A9.91 9.91 0 001.09 12a10.7 10.7 0 00.09 1.39l2.49.25.09.38a8.28 8.28 0 001.12 2.59l.21.32-1.53 2a10.35 10.35 0 001.78 1.72l1.93-1.58.33.2a8.28 8.28 0 002.62 1.05l.38.08.32 2.47a10.3 10.3 0 002.48 0l.24-2.49.38-.09a8.28 8.28 0 002.59-1.12l.32-.21 2 1.53a10.8 10.8 0 001.73-1.78l-1.59-1.93.2-.33a8.37 8.37 0 001.05-2.62l.08-.38 2.47-.32a9.91 9.91 0 00.04-1.13 11 11 0 00-.09-1.4l-2.49-.24-.09-.36a8.28 8.28 0 00-1.12-2.59l-.21-.32 1.53-2a10.8 10.8 0 00-1.78-1.73L16.73 5l-.33-.2a8.37 8.37 0 00-2.62-1l-.38-.08-.32-2.47a10.3 10.3 0 00-2.48-.07zM12 6.55A5.45 5.45 0 116.55 12 5.45 5.45 0 0112 6.55zm0 1.09A4.36 4.36 0 1016.36 12 4.36 4.36 0 0012 7.64z"/></svg>