<svg xmlns="http://www.w3.org/2000/svg" viewBox="0 0 24 24"><path d="M12.55 18.55v4.36L11.45 24v-4.36zm9.12-4.91a9.82 9.82 0 01-8 8v-1.1a8.75 8.75 0 006.93-6.93h1.1zm-18.24 0a8.75 8.75 0 006.93 6.93v1.1a9.82 9.82 0 01-8-8h1.1zM12 10.36A1.64 1.64 0 1110.36 12 1.65 1.65 0 0112 10.36zm-6.55 1.09l-1.09 1.1H0l1.09-1.1zm18.55 0l-1.09 1.1h-4.36l1.09-1.1zM10.36 2.33v1.1a8.75 8.75 0 00-6.93 6.93h-1.1a9.82 9.82 0 018-8zm3.28 0a9.82 9.82 0 018 8h-1.1a8.75 8.75 0 00-6.93-6.93zM12.55 0v4.36l-1.1 1.09V1.09z"/></svg>