<svg xmlns="http://www.w3.org/2000/svg" viewBox="0 0 24 24"><path d="M11.32 5.54a6.18 6.18 0 011.36 0c6.29.38 10.84 5.87 11 6.12L24 12l-.28.34c-.2.25-4.75 5.74-11 6.12a6.18 6.18 0 01-1.36 0C5 18.08.48 12.59.28 12.34L0 12l.28-.34c.2-.25 4.72-5.74 11.04-6.12zm.68 1A5.42 5.42 0 1017.38 12 5.4 5.4 0 0012 6.58zm-4.87 1.2A19.43 19.43 0 001.41 12a19.43 19.43 0 005.72 4.26 6.5 6.5 0 010-8.52zm9.74 0a6.5 6.5 0 010 8.52A19.43 19.43 0 0022.59 12a19.43 19.43 0 00-5.72-4.26zM12 9.29A2.71 2.71 0 119.31 12 2.7 2.7 0 0112 9.29zm0 1.09A1.62 1.62 0 1013.61 12 1.61 1.61 0 0012 10.38z"/></svg>