<svg xmlns="http://www.w3.org/2000/svg" viewBox="0 0 24 24"><path d="M12 14.5A2.5 2.5 0 109.5 12a2.503 2.503 0 002.5 2.5zm0-4a1.5 1.5 0 11-1.5 1.5 1.502 1.502 0 011.5-1.5z"/><path d="M22.887 11.684c-.183-.225-4.416-5.296-10.254-5.65a5.88 5.88 0 00-1.266 0c-5.838.354-10.07 5.425-10.254 5.65L.853 12l.26.316c.183.225 4.416 5.296 10.254 5.65a5.88 5.88 0 001.266 0c5.838-.354 10.07-5.425 10.254-5.65l.26-.316zM17 12a5 5 0 11-5-5 5.006 5.006 0 015 5zM2.167 12a17.876 17.876 0 015.31-3.93 5.967 5.967 0 000 7.86A17.876 17.876 0 012.167 12zm14.356 3.93a5.967 5.967 0 000-7.86 17.876 17.876 0 015.31 3.93 17.876 17.876 0 01-5.31 3.93z"/></svg>