<svg xmlns="http://www.w3.org/2000/svg" viewBox="0 0 24 24"><path d="M2.646 20.647l18-18 .708.706-18 18zM12 14.5a2.503 2.503 0 002.5-2.5 2.46 2.46 0 00-.035-.344l-2.81 2.81A2.46 2.46 0 0012 14.5zM9.5 12a2.46 2.46 0 00.035.344l2.81-2.81A2.46 2.46 0 0012 9.5 2.503 2.503 0 009.5 12z"/><path d="M6.465 15.414A18.398 18.398 0 012.167 12a17.876 17.876 0 015.31-3.93 5.958 5.958 0 00-.64 6.972l.747-.747A4.936 4.936 0 017 12a5.006 5.006 0 015-5c.215 0 .422.03.633.045a5.08 5.08 0 011.662.539l.747-.747.307-.307A11.203 11.203 0 0012 6a6.027 6.027 0 00-.633.034c-5.838.354-10.07 5.425-10.254 5.65L.853 12l.26.316a18.634 18.634 0 004.609 3.841zM22.887 11.684a18.634 18.634 0 00-4.609-3.841l-.743.743A18.398 18.398 0 0121.833 12a17.876 17.876 0 01-5.31 3.93 5.958 5.958 0 00.64-6.972l-.747.747A4.936 4.936 0 0117 12a5.006 5.006 0 01-5 5c-.215 0-.422-.03-.633-.045a5.084 5.084 0 01-1.662-.539l-.747.747-.307.307A11.203 11.203 0 0012 18a6.027 6.027 0 00.633-.034c5.838-.354 10.07-5.425 10.254-5.65l.26-.316z"/></svg>