<svg xmlns="http://www.w3.org/2000/svg" viewBox="0 0 24 24"><path d="M21.31 2l.76.76L2.69 22l-.76-.76zm-2.55 5.56a20 20 0 015 4.1L24 12l-.28.34c-.2.24-4.75 5.66-11 6h-.68a12 12 0 01-3.61-.56l.34-.33.8-.8a5.61 5.61 0 001.79.58c.23 0 .45.05.68.05A5.38 5.38 0 0017.38 12a5.1 5.1 0 00-.63-2.45l.81-.8a6.33 6.33 0 01-.69 7.45 19.24 19.24 0 005.72-4.2A19.74 19.74 0 0018 8.35zM12 5.59a12 12 0 013.61.56l-.34.33-.8.8a5.61 5.61 0 00-1.79-.58H12A5.38 5.38 0 006.62 12a5.1 5.1 0 00.63 2.45l-.81.8a6.33 6.33 0 01.69-7.45A19.24 19.24 0 001.41 12 19.74 19.74 0 006 15.65l-.8.79a20 20 0 01-5-4.1L0 12l.28-.34c.2-.24 4.75-5.66 11-6 .26-.06.49-.07.72-.07zm2.65 6a1.55 1.55 0 010 .37A2.67 2.67 0 0112 14.67a2.31 2.31 0 01-.37 0zM12 9.33a2.31 2.31 0 01.37 0l-3 3a1.55 1.55 0 010-.37A2.67 2.67 0 0112 9.33z"/></svg>