<svg xmlns="http://www.w3.org/2000/svg" viewBox="0 0 24 24"><path d="M9.983 20.793l-.713.7.35.357q.514.524 1.024 1.006l.707-.707q-.508-.48-1.018-.999zM5.192 13.353c-.07-.442-.127-.897-.16-1.353h-1c.033.518.096 1.022.172 1.507.255 1.625.269 2.264-.308 2.889l.704.704c.952-1.018.853-2.082.592-3.747z"/><path d="M7.662 12.966a10.205 10.205 0 01-.162-1.464 4.473 4.473 0 012.485-4.024A4.521 4.521 0 0112 7a4.474 4.474 0 012.922 1.078l.706-.706a5.497 5.497 0 00-9.128 4.13 10.778 10.778 0 00.175 1.619c.275 1.762.588 3.759-1.49 5.49l-.594.48.712.711.517-.418c2.519-2.099 2.128-4.595 1.842-6.418zM16.92 9.043a5.588 5.588 0 00-.357-.606L16.5 8.5l-.665.665c.064.107.134.21.19.324a12.992 12.992 0 003.703 4.783l.711-.711a12.185 12.185 0 01-3.52-4.518zM9.981 16.934l-.605-.86-.285 1.012a6.73 6.73 0 01-2.114 3.282c-.02.018-.042.03-.062.047l.711.711.013-.009a7.983 7.983 0 002.09-2.84 24.666 24.666 0 004.562 4.432l.703-.703a22.942 22.942 0 01-5.013-5.072zM7.746 3.008a9.485 9.485 0 0110.45 1.295l.706-.706A10.475 10.475 0 007.298 2.114a10.549 10.549 0 00-2.47 1.715l.707.706a9.551 9.551 0 012.211-1.527z"/><path d="M12 3.5a8.032 8.032 0 00-3.582.849 7.937 7.937 0 00-4.349 6.15h1.003a6.948 6.948 0 013.793-5.256A7.034 7.034 0 0112 4.5a6.96 6.96 0 016.262 3.872 13.809 13.809 0 001.254 2.112l.71-.71a13.414 13.414 0 01-1.07-1.849A7.953 7.953 0 0012 3.5z"/><path d="M10.21 12.396a2 2 0 113.58-1.789 16.002 16.002 0 005.566 6.537l.714-.714a15.189 15.189 0 01-5.386-6.27 3 3 0 00-5.368 2.683 22.085 22.085 0 002.855 4.486l.71-.71a21.207 21.207 0 01-2.67-4.223zM17.338 20.63a25.381 25.381 0 01-3.507-2.96l-.71.708a26.343 26.343 0 003.522 2.98l.716-.717-.021-.012z"/><path d="M12.447 11.278l-.894.447a18.108 18.108 0 005.733 6.99L18 18a17.285 17.285 0 01-5.553-6.722z"/></svg>