<svg xmlns="http://www.w3.org/2000/svg" viewBox="0 0 24 24"><path d="M9.62 21.74l.38.39c.37.38.74.74 1.11 1.09l-.77.78c-.37-.35-.74-.72-1.11-1.1l-.38-.4zM9 16.55l.66.95a25.09 25.09 0 005.46 5.57l-.77.77a26.91 26.91 0 01-5-4.87 8.72 8.72 0 01-2.28 3.12l-.78-.78.07-.05a7.38 7.38 0 002.3-3.61zm4.85 1.75a26.9 26.9 0 003.82 3.25l-.78.78A28.4 28.4 0 0113 19.08zM9.35 6a5.92 5.92 0 016.41 1l-.76.77a4.9 4.9 0 00-8.08 3.76 10.87 10.87 0 00.18 1.61c.31 2 .73 4.74-2 7.05l-.56.46-.77-.78.64-.53c2.12-1.78 2-3.81 1.68-5.65L6 13.31a13.27 13.27 0 01-.19-1.78A6 6 0 019.35 6zm3 5.26a19 19 0 006.05 7.38l-.78.78a19.76 19.76 0 01-6.24-7.67zm-1.94-2.7a3.24 3.24 0 014.38 1.47 16.52 16.52 0 005.86 6.88l-.78.79a17.61 17.61 0 01-6.06-7.18 2.17 2.17 0 00-3.81-.2 2.2 2.2 0 00-.13 2.19 23.2 23.2 0 002.91 4.64l-.78.78A24.42 24.42 0 018.9 13a3.31 3.31 0 011.46-4.41zm-6.17 3.52c0 .5.1 1 .17 1.49.28 1.82.39 3-.64 4.11L3 16.91c.63-.69.61-1.39.34-3.18a14.34 14.34 0 01-.19-1.65h1.09zm12.54-3.91a4.4 4.4 0 01.39.66 13.33 13.33 0 003.83 5l-.77.78a14 14 0 01-4-5.25A4.05 4.05 0 0016 9l.72-.73zm-5-5.42A8.62 8.62 0 0119.6 7.6a15.83 15.83 0 001.17 2l-.77.77a14.94 14.94 0 01-1.37-2.27 7.6 7.6 0 00-14.35 2.33H3.19a8.71 8.71 0 018.63-7.68zM6.7 1.22a11.33 11.33 0 0112.63 1.63l-.77.78A10.26 10.26 0 007.19 2.2a10.63 10.63 0 00-2.41 1.68L4 3.11a11.4 11.4 0 012.7-1.89z"/></svg>