<svg id="Layer_1" data-name="Layer 1" xmlns="http://www.w3.org/2000/svg" viewBox="0 0 1133.90002 1389"><g id="Layer_3" data-name="Layer 3"><rect width="1133.90002" height="1389" style="fill:#fff"/></g><g id="Layer_2" data-name="Layer 2" style="opacity:0.5"><g style="opacity:0.25"><path d="M-.9,133.1l.3,8.1L9.7,151.5,2.2,159-34,122.8l7.5-7.5,16.4,16.4-1.2-7.8L-14,102.8l9.2-9.2,3.2,28.9,33.3,6.9-8.9,8.9Z" style="fill:#505050"/><path d="M43.8,86.1,29.5,100.4l9.7,9.7L56,93.3l6,6L37.7,123.6,1.5,87.4,25.7,63.2l6,6L15,85.9l8.6,8.6L37.9,80.2Z" style="fill:#505050"/><path d="M91.2,38.7,76.9,53l9.7,9.7,16.8-16.8,6,6L85.1,76.1,48.9,39.9,73.1,15.7l6,6L62.4,38.5,71,47.1,85.3,32.8Z" style="fill:#505050"/><path d="M106,7.8l-5.7-19.3,8.6-8.6,7.4,28.5,29.1,7.4-8.7,8.7-19.6-5.7,5.7,19.6-8.7,8.7L106.7,18,78.2,10.6,86.8,2Z" style="fill:#505050"/><path d="M165.2-18.9,152.1-5.8l5,9.9L149.2,12,126.5-37.7l6.9-6.9L183.1-22l-7.9,7.9Zm-17.1,5.1,9-9-18.1-9Z" style="fill:#505050"/><path d="M-30.9,318.5l-5.7-19.3,8.6-8.6,7.4,28.5,29.1,7.4-8.7,8.7-19.6-5.7,5.7,19.6-8.7,8.7-7.4-29.1-28.5-7.4,8.6-8.6Z" style="fill:#505050"/><path d="M28.2,291.9,15.2,305l5,9.9-7.9,7.9-22.7-49.7,6.9-6.9,49.7,22.6-7.9,7.9Zm-17.1,5,9-9L2,278.9Z" style="fill:#505050"/><path d="M26.1,236.6l35.5,17-17-35.5,9.8-9.8,36.2,36.2L83.1,252l-9.9-9.9L56.9,224.3,74.1,261,69,266,32.3,248.8l17.8,16.3L60,275l-7.5,7.5L16.3,246.3Z" style="fill:#505050"/><path d="M94.9,214.6l12.8,12.8-7.5,7.5L64,198.7l14.1-14.1a23.40917,23.40917,0,0,1,8.7-5.7,15.48906,15.48906,0,0,1,9-.5,16.04976,16.04976,0,0,1,7.9,4.6,14.70984,14.70984,0,0,1,4.7,12c-.4,4.5-2.7,8.9-7,13.2Zm-6-6,6.7-6.7c2-2,3-3.9,3.1-5.9a7.09529,7.09529,0,0,0-2.4-5.5,8.10638,8.10638,0,0,0-5.9-2.7,8.52986,8.52986,0,0,0-6,2.6l-6.8,6.8Z" style="fill:#505050"/><path d="M137.6,185.5l15.8-15.8,6,6L136.1,199,99.9,162.8l7.5-7.5Z" style="fill:#505050"/><path d="M172.8,130.9l-14.3,14.3,9.7,9.7L185,138.1l6,6-24.3,24.3-36.2-36.2L154.7,108l6,6L144,130.7l8.6,8.6L167,125Z" style="fill:#505050"/><path d="M265,45.9c3.6,4.2,5.2,8.7,4.9,13.5-.4,4.8-2.7,9.4-6.9,13.6-4.6,4.6-9.9,6.7-15.6,6.3s-11.4-3.4-16.9-8.9l-2.2-2.2a32.33586,32.33586,0,0,1-7.4-11,19.508,19.508,0,0,1-.8-11.4,21.231,21.231,0,0,1,5.8-10.1c4.2-4.2,8.7-6.4,13.4-6.7,4.8-.3,9.4,1.4,13.8,5l-7.5,7.5c-2.5-2.2-4.9-3.2-7-3.1s-4.4,1.2-6.7,3.5c-2.5,2.5-3.5,5.2-2.9,8.3.5,3,2.7,6.4,6.4,10.2l2.7,2.7c3.9,3.9,7.4,6.2,10.4,6.8s5.8-.3,8.3-2.9c2.3-2.3,3.5-4.5,3.6-6.7s-.9-4.5-2.9-6.8Z" style="fill:#505050"/><path d="M298,22.2,284.9,35.3l5,9.9L282,53.1,259.2,3.4l6.9-6.9,49.7,22.6L307.9,27Zm-17.1,5,9-9-18.1-9Z" style="fill:#505050"/><path d="M319.2-13.1l.3,8.1L329.8,5.3l-7.5,7.5L286.1-23.4l7.5-7.5L310-14.5l-1.2-7.8-2.7-21.1,9.2-9.2,3.2,28.9,33.3,6.9L343-7.9Z" style="fill:#505050"/><path d="M-8.6,505.5,7.2,489.7l6,6L-10.1,519l-36.2-36.2,7.5-7.5Z" style="fill:#505050"/><path d="M26.6,450.9,12.3,465.2l9.7,9.7,16.8-16.8,6,6L20.5,488.4l-36.2-36.2L8.6,428l6,6L-2.2,450.8l8.6,8.6,14.3-14.3Z" style="fill:#505050"/><path d="M118.8,366c3.6,4.2,5.2,8.7,4.9,13.5-.4,4.8-2.7,9.4-6.9,13.6-4.6,4.6-9.9,6.7-15.6,6.3s-11.4-3.4-16.9-8.9l-2.2-2.2a32.336,32.336,0,0,1-7.4-11,19.508,19.508,0,0,1-.8-11.4,21.231,21.231,0,0,1,5.8-10.1c4.2-4.2,8.7-6.4,13.4-6.7,4.8-.3,9.4,1.4,13.8,5l-7.5,7.5c-2.5-2.2-4.9-3.2-7-3.1s-4.4,1.2-6.7,3.5c-2.5,2.5-3.5,5.2-2.9,8.3.5,3,2.7,6.4,6.4,10.2l2.7,2.7c3.9,3.9,7.4,6.2,10.4,6.8s5.8-.3,8.3-2.9c2.3-2.3,3.5-4.5,3.6-6.7s-.9-4.5-2.9-6.8Z" style="fill:#505050"/><path d="M151.8,342.2l-13.1,13.1,5,9.9-7.9,7.9-22.7-49.7,6.9-6.9,49.7,22.6-7.9,7.9Zm-17.1,5,9-9-18.1-9Z" style="fill:#505050"/><path d="M173,306.9l.3,8.1,10.3,10.3-7.5,7.5L140,296.6l7.5-7.5,16.4,16.4-1.2-7.8L160,276.6l9.2-9.2,3.2,28.9,33.3,6.9-8.9,8.9Z" style="fill:#505050"/><path d="M217.6,259.9l-14.3,14.3,9.7,9.7,16.8-16.8,6,6-24.3,24.3-36.2-36.2L199.5,237l6,6-16.8,16.8,8.6,8.6,14.3-14.3Z" style="fill:#505050"/><path d="M265,212.5l-14.3,14.3,9.7,9.7,16.8-16.8,6,6L258.9,250l-36.2-36.2,24.2-24.2,6,6-16.8,16.8,8.6,8.6L259,206.7Z" style="fill:#505050"/><path d="M279.9,181.6l-5.7-19.3,8.6-8.6,7.4,28.5,29.1,7.4-8.7,8.7L291,192.6l5.7,19.6L288,221l-7.4-29.1-28.5-7.4,8.6-8.6Z" style="fill:#505050"/><path d="M339,155l-13.1,13.1,5,9.9-7.9,7.9-22.7-49.7,6.9-6.9,49.7,22.6-7.9,7.9Zm-17.1,5,9-9-18.1-9Z" style="fill:#505050"/><path d="M336.9,99.6l35.5,17-17-35.5,9.8-9.8,36.2,36.2L394,115l-9.9-9.9L367.8,87.3,385,124l-5.1,5.1-36.7-17.2L361,128.2l9.9,9.9-7.5,7.5-36.2-36.2Z" style="fill:#505050"/><path d="M405.7,77.7l12.8,12.8L411,98,374.8,61.8l14.1-14.1a23.40944,23.40944,0,0,1,8.7-5.7,15.489,15.489,0,0,1,9-.5,16.0498,16.0498,0,0,1,7.9,4.6,14.70988,14.70988,0,0,1,4.7,12c-.4,4.5-2.7,8.9-7,13.2Zm-6-6,6.7-6.7c2-2,3-3.9,3.1-5.9a7.09533,7.09533,0,0,0-2.4-5.5,8.10641,8.10641,0,0,0-5.9-2.7,8.52983,8.52983,0,0,0-6,2.6l-6.8,6.8Z" style="fill:#505050"/><path d="M448.4,48.6l15.8-15.8,6,6L446.9,62,410.7,25.8l7.5-7.5Z" style="fill:#505050"/><path d="M483.6-6.1,469.3,8.3,479,18,495.8,1.2l6,6L477.5,31.5,441.3-4.8,465.5-29l6,6L454.8-6.2l8.6,8.6,14.3-14.3Z" style="fill:#505050"/><path d="M14.9,653,1.8,666l5,9.9-7.9,7.9-22.7-49.7,6.9-6.9L32.8,650l-7.9,7.9Zm-17.1,5,9-9-18.1-9Z" style="fill:#505050"/><path d="M36,617.7l.3,8.1,10.3,10.3-7.5,7.5L3,607.3l7.5-7.5,16.4,16.4-1.2-7.8-2.7-21,9.2-9.2,3.2,28.9,33.3,6.9-8.9,8.9Z" style="fill:#505050"/><path d="M80.7,570.7,66.4,585l9.7,9.7,16.8-16.8,6,6L74.6,608.2,38.4,572l24.2-24.2,6,6L51.8,570.6l8.6,8.6,14.3-14.3Z" style="fill:#505050"/><path d="M128.1,523.3l-14.3,14.3,9.7,9.7,16.8-16.8,6,6L122,560.7,85.8,524.5,110,500.3l6,6L99.2,523.1l8.6,8.6,14.3-14.3Z" style="fill:#505050"/><path d="M142.9,492.4l-5.7-19.3,8.6-8.6,7.4,28.5,29.1,7.4-8.7,8.7L154,503.4l5.7,19.6-8.7,8.7-7.4-29.1-28.5-7.4,8.6-8.6Z" style="fill:#505050"/><path d="M202.1,465.8l-13.1,13,5,9.9-7.9,7.9L163.3,447l6.9-6.9,49.7,22.6-7.9,7.9Zm-17.1,5,9-9-18.1-9Z" style="fill:#505050"/><path d="M200,410.4l35.5,17-17-35.5,9.8-9.8,36.2,36.2-7.5,7.5-9.9-9.9L230.8,398,248,434.7l-5.1,5.1-36.7-17.2L224,439l9.9,9.9-7.5,7.5-36.2-36.2Z" style="fill:#505050"/><path d="M268.8,388.5l12.8,12.8-7.5,7.5-36.2-36.2L252,358.5a23.4092,23.4092,0,0,1,8.7-5.7,15.48883,15.48883,0,0,1,9-.5,16.04988,16.04988,0,0,1,7.9,4.6,14.70992,14.70992,0,0,1,4.7,12c-.4,4.5-2.7,8.9-7,13.2Zm-6.1-6.1,6.7-6.7c2-2,3-3.9,3.1-5.9a7.09534,7.09534,0,0,0-2.4-5.5,8.10646,8.10646,0,0,0-5.9-2.7,8.52974,8.52974,0,0,0-6,2.6l-6.8,6.8Z" style="fill:#505050"/><path d="M311.4,359.3l15.8-15.8,6,6L310,372.8l-36.2-36.2,7.5-7.5Z" style="fill:#505050"/><path d="M346.7,304.7,332.4,319l9.7,9.7,16.8-16.8,6,6-24.3,24.3L304.4,306l24.2-24.2,6,6-16.8,16.8,8.6,8.6,14.3-14.3Z" style="fill:#505050"/><path d="M438.9,219.8c3.6,4.2,5.2,8.7,4.9,13.5-.4,4.8-2.7,9.4-6.9,13.6-4.6,4.6-9.9,6.7-15.6,6.3s-11.4-3.4-16.9-8.9l-2.2-2.2a32.33586,32.33586,0,0,1-7.4-11,19.50773,19.50773,0,0,1-.8-11.4,21.231,21.231,0,0,1,5.8-10.1c4.2-4.2,8.7-6.4,13.4-6.7,4.8-.3,9.4,1.4,13.8,5l-7.5,7.5c-2.5-2.2-4.9-3.2-7-3.1s-4.4,1.2-6.7,3.5c-2.5,2.5-3.5,5.2-2.9,8.3.5,3,2.7,6.4,6.4,10.2L412,237c3.9,3.9,7.4,6.2,10.4,6.8s5.8-.3,8.3-2.9c2.3-2.3,3.5-4.5,3.6-6.7s-.9-4.5-2.9-6.8Z" style="fill:#505050"/><path d="M471.8,196l-13.1,13.1,5,9.9-7.9,7.9-22.7-49.7,6.9-6.9,49.7,22.6-7.9,7.9Zm-17.1,5,9-9-18.1-9Z" style="fill:#505050"/><path d="M493,160.7l.3,8.1,10.3,10.3-7.5,7.5L460,150.4l7.5-7.5,16.4,16.4-1.2-7.8L480,130.4l9.2-9.2,3.2,28.9,33.3,6.9-8.9,8.9Z" style="fill:#505050"/><path d="M537.6,113.7,523.3,128l9.7,9.7,16.8-16.8,6,6-24.3,24.3L495.4,115l24.2-24.2,6,6-16.8,16.8,8.6,8.6,14.3-14.3Z" style="fill:#505050"/><path d="M585.1,66.3,570.8,80.6l9.7,9.7,16.8-16.8,6,6L579,103.8,542.8,67.6,567,43.4l6,6L556.2,66.2l8.6,8.6,14.3-14.3Z" style="fill:#505050"/><path d="M599.9,35.4l-5.7-19.3,8.6-8.6L610.2,36l29.1,7.4-8.7,8.7L611,46.4,616.7,66,608,74.7l-7.4-29.1-28.5-7.4,8.6-8.6Z" style="fill:#505050"/><path d="M659,8.8,646,21.9l5,9.9-7.9,7.9L620.3-9.9l6.9-6.9L676.9,5.8,669,13.7Zm-17.1,5,9-9-18.1-9Z" style="fill:#505050"/><path d="M-18.1,843.3l-14.3,14.3,9.7,9.7,16.8-16.8,6,6-24.3,24.3-36.2-36.2,24.2-24.2,6,6L-47,843.2l8.6,8.6,14.3-14.3Z" style="fill:#505050"/><path d="M-3.2,812.4l-5.7-19.3,8.6-8.6L7,813.1l29.1,7.4-8.7,8.7L7.8,823.5l5.7,19.6-8.7,8.7-7.4-29.1-28.5-7.4,8.6-8.6Z" style="fill:#505050"/><path d="M55.9,785.8,42.8,798.9l5,9.9-7.9,7.9L17.2,767l6.9-6.9,49.7,22.6-7.9,7.9Zm-17.1,5,9-9-18.1-9Z" style="fill:#505050"/><path d="M53.8,730.4l35.5,17-17-35.5,9.8-9.8,36.2,36.2-7.5,7.5-9.9-9.9L84.6,718.1l17.2,36.7-5.1,5.1L60,742.7,77.8,759l9.9,9.9-7.5,7.5L44,740.2Z" style="fill:#505050"/><path d="M122.6,708.5l12.8,12.8-7.5,7.5L91.7,692.6l14.1-14.1a23.40946,23.40946,0,0,1,8.7-5.7,15.48907,15.48907,0,0,1,9-.5,16.05009,16.05009,0,0,1,7.9,4.6,14.70981,14.70981,0,0,1,4.7,12c-.4,4.5-2.7,8.9-7,13.2Zm-6.1-6,6.7-6.7c2-2,3-3.9,3.1-5.9a7.09534,7.09534,0,0,0-2.4-5.5,8.10647,8.10647,0,0,0-5.9-2.7,8.52984,8.52984,0,0,0-6,2.6l-6.8,6.8Z" style="fill:#505050"/><path d="M165.2,679.4,181,663.6l6,6-23.3,23.3-36.2-36.2,7.5-7.5Z" style="fill:#505050"/><path d="M200.5,624.7,186.2,639l9.7,9.7,16.8-16.8,6,6-24.3,24.3L158.2,626l24.2-24.2,6,6-16.8,16.8,8.6,8.6,14.3-14.3Z" style="fill:#505050"/><path d="M292.7,539.8c3.6,4.2,5.2,8.7,4.9,13.5-.4,4.8-2.7,9.4-6.9,13.6-4.6,4.6-9.9,6.7-15.6,6.3s-11.4-3.4-16.9-8.9l-2.2-2.2a32.336,32.336,0,0,1-7.4-11,19.50809,19.50809,0,0,1-.8-11.4,21.231,21.231,0,0,1,5.8-10.1c4.2-4.2,8.7-6.4,13.4-6.7,4.8-.3,9.4,1.4,13.8,5l-7.5,7.5c-2.5-2.2-4.9-3.2-7-3.1s-4.4,1.2-6.7,3.5c-2.5,2.5-3.5,5.2-2.9,8.3.5,3,2.7,6.4,6.4,10.2l2.7,2.7c3.9,3.9,7.4,6.2,10.4,6.8s5.8-.3,8.3-2.9c2.3-2.3,3.5-4.5,3.6-6.7s-.9-4.5-2.9-6.8Z" style="fill:#505050"/><path d="M325.7,516l-13.1,13.1,5,9.9-7.9,7.9L287,497.2l6.9-6.9,49.7,22.6-7.9,7.9Zm-17.1,5,9-9-18.1-9Z" style="fill:#505050"/><path d="M346.8,480.8l.3,8.1,10.3,10.3-7.5,7.5-36.2-36.2,7.5-7.5,16.4,16.4-1.2-7.8-2.7-21.1,9.2-9.2,3.2,28.9,33.3,6.9-8.9,8.9Z" style="fill:#505050"/><path d="M391.5,433.8l-14.3,14.3,9.7,9.7L403.7,441l6,6-24.3,24.3L349.2,435l24.2-24.2,6,6-16.8,16.8,8.6,8.6,14.3-14.3Z" style="fill:#505050"/><path d="M438.9,386.3l-14.3,14.3,9.7,9.7,16.8-16.8,6,6-24.3,24.3-36.2-36.2,24.2-24.2,6,6L410,386.2l8.6,8.6,14.3-14.3Z" style="fill:#505050"/><path d="M453.7,355.5,448,336.2l8.6-8.6,7.4,28.5,29.1,7.4-8.7,8.7-19.6-5.7,5.7,19.6-8.7,8.7-7.4-29.1-28.5-7.4,8.6-8.6Z" style="fill:#505050"/><path d="M512.9,328.8l-13.1,13.1,5,9.9-7.9,7.9L474.2,310l6.9-6.9,49.7,22.6-7.9,7.9Zm-17.1,5.1,9-9-18.1-9Z" style="fill:#505050"/><path d="M510.7,273.5l35.5,17-17-35.5,9.8-9.8,36.2,36.2-7.5,7.5-9.9-9.9-16.3-17.8,17.2,36.7-5.1,5.1L517,285.8l17.8,16.3,9.9,9.9-7.5,7.5L501,283.2Z" style="fill:#505050"/><path d="M579.5,251.5l12.8,12.8-7.5,7.5-36.2-36.2,14.1-14.1a23.40914,23.40914,0,0,1,8.7-5.7,15.48889,15.48889,0,0,1,9-.5,16.0498,16.0498,0,0,1,7.9,4.6,14.71,14.71,0,0,1,4.7,12c-.4,4.5-2.7,8.9-7,13.2Zm-6-6,6.7-6.7c2-2,3-3.9,3.1-5.9a7.09537,7.09537,0,0,0-2.4-5.5,8.10639,8.10639,0,0,0-5.9-2.7,8.52991,8.52991,0,0,0-6,2.6l-6.8,6.8Z" style="fill:#505050"/><path d="M622.2,222.4,638,206.6l6,6-23.3,23.3-36.2-36.2,7.5-7.5Z" style="fill:#505050"/><path d="M657.5,167.8l-14.3,14.3,9.7,9.7L669.7,175l6,6-24.3,24.3L615.2,169l24.2-24.2,6,6-16.8,16.8,8.6,8.6,14.3-14.3Z" style="fill:#505050"/><path d="M749.6,82.9c3.6,4.2,5.2,8.7,4.9,13.5-.4,4.8-2.7,9.4-6.9,13.6-4.6,4.6-9.9,6.7-15.6,6.3s-11.4-3.4-16.9-8.9l-2.2-2.2a32.33588,32.33588,0,0,1-7.4-11,19.50751,19.50751,0,0,1-.8-11.4,21.23135,21.23135,0,0,1,5.8-10.1c4.2-4.2,8.7-6.4,13.4-6.7,4.8-.3,9.4,1.4,13.8,5l-7.5,7.5c-2.5-2.2-4.9-3.2-7-3.1s-4.4,1.2-6.7,3.5c-2.5,2.5-3.5,5.2-2.9,8.3.5,3,2.7,6.4,6.4,10.2l2.7,2.7c3.9,3.9,7.4,6.2,10.4,6.8s5.8-.3,8.3-2.9c2.3-2.3,3.5-4.5,3.6-6.7s-.9-4.5-2.9-6.8Z" style="fill:#505050"/><path d="M782.6,59.1,769.5,72.2l5,9.9L766.6,90,743.9,40.3l6.9-6.9L800.5,56l-7.9,7.9Zm-17.1,5,9-9-18.1-9Z" style="fill:#505050"/><path d="M803.8,23.8l.3,8.1,10.3,10.3-7.5,7.5-36.2-36.2,7.5-7.5,16.4,16.4-1.2-7.8-2.7-21.1,9.2-9.2,3.2,28.9,33.3,6.9-8.9,8.9Z" style="fill:#505050"/><path d="M848.4-23.2,834.1-8.9,843.8.8,860.6-16l6,6L842.3,14.3,806.1-21.9l24.2-24.2,6,6L819.5-23.3l8.6,8.6L842.6-29Z" style="fill:#505050"/><path d="M28.3,990.2l15.8-15.8,6,6-23.3,23.3L-9.4,967.5l7.5-7.5Z" style="fill:#505050"/><path d="M63.6,935.5,49.3,949.8l9.7,9.7,16.8-16.8,6,6L57.5,973,21.3,936.8l24.2-24.2,6,6L34.7,935.4l8.6,8.6,14.3-14.3Z" style="fill:#505050"/><path d="M155.7,850.6c3.6,4.2,5.2,8.7,4.9,13.5-.4,4.8-2.7,9.4-6.9,13.6-4.6,4.6-9.9,6.7-15.6,6.3s-11.4-3.4-16.9-8.9l-2.2-2.2a32.336,32.336,0,0,1-7.4-11,18.6791,18.6791,0,0,1-.8-11.4,21.231,21.231,0,0,1,5.8-10.1c4.2-4.2,8.7-6.4,13.4-6.7,4.8-.3,9.4,1.4,13.8,5l-7.5,7.5c-2.5-2.2-4.9-3.2-7-3.1-2.2.1-4.4,1.2-6.7,3.5-2.5,2.5-3.5,5.2-2.9,8.3.5,3,2.7,6.4,6.4,10.2l2.7,2.7c3.9,3.9,7.4,6.2,10.4,6.8s5.8-.3,8.3-2.9c2.3-2.3,3.5-4.5,3.6-6.7s-.9-4.5-2.9-6.8Z" style="fill:#505050"/><path d="M188.7,826.8l-13.1,13.1,5,9.9-7.9,7.9L150,808.1l6.9-6.9,49.7,22.6-7.9,7.9Zm-17.1,5,9-9-18.1-9Z" style="fill:#505050"/><path d="M209.9,791.5l.3,8.1,10.3,10.3-7.5,7.5-36.2-36.2,7.5-7.5,16.4,16.4-1.2-7.8-2.7-21.1L206,752l3.2,28.9,33.3,6.9-8.9,8.9Z" style="fill:#505050"/><path d="M254.5,744.5l-14.3,14.3,9.7,9.7,16.8-16.8,6,6L248.4,782l-36.2-36.2,24.2-24.2,6,6-16.8,16.8,8.6,8.6,14.3-14.3Z" style="fill:#505050"/><path d="M301.9,697.1l-14.3,14.3,9.7,9.7,16.8-16.8,6,6-24.3,24.3-36.2-36.2,24.2-24.2,6,6L273.2,697l8.6,8.6,14.3-14.3Z" style="fill:#505050"/><path d="M316.8,666.2l-5.7-19.3,8.6-8.6,7.4,28.5,29.1,7.4-8.7,8.7-19.6-5.7,5.7,19.6-8.7,8.7-7.4-29.1-28.5-7.4,8.6-8.6Z" style="fill:#505050"/><path d="M375.9,639.6l-13.1,13.1,5,9.9-7.9,7.9-22.7-49.7,6.9-6.9,49.7,22.6-7.9,7.9Zm-17.1,5,9-9-18.1-9Z" style="fill:#505050"/><path d="M373.8,584.2l35.5,17-17-35.5,9.8-9.8,36.2,36.2-7.5,7.5-9.9-9.9-16.3-17.8,17.2,36.7-5.1,5.1L380,596.5l17.8,16.3,9.9,9.9-7.5,7.5L364.1,594Z" style="fill:#505050"/><path d="M442.6,562.3l12.8,12.8-7.5,7.5-36.2-36.2,14.1-14.1a23.40961,23.40961,0,0,1,8.7-5.7,15.489,15.489,0,0,1,9-.5,16.05,16.05,0,0,1,7.9,4.6,14.70989,14.70989,0,0,1,4.7,12c-.4,4.5-2.7,8.9-7,13.2Zm-6-6,6.7-6.7c2-2,3-3.9,3.1-5.9a7.09534,7.09534,0,0,0-2.4-5.5,8.10644,8.10644,0,0,0-5.9-2.7,8.52984,8.52984,0,0,0-6,2.6l-6.8,6.8Z" style="fill:#505050"/><path d="M485.3,533.2l15.8-15.8,6,6-23.3,23.3-36.2-36.2,7.5-7.5Z" style="fill:#505050"/><path d="M520.5,478.6l-14.3,14.3,9.7,9.7,16.8-16.8,6,6L514.4,516l-36.2-36.2,24.2-24.2,6,6-16.8,16.8,8.6,8.6,14.3-14.3Z" style="fill:#505050"/><path d="M612.7,393.6c3.6,4.2,5.2,8.7,4.9,13.5-.4,4.8-2.7,9.4-6.9,13.6-4.6,4.6-9.9,6.7-15.6,6.3s-11.4-3.4-16.9-8.9l-2.2-2.2a32.33607,32.33607,0,0,1-7.4-11,19.5074,19.5074,0,0,1-.8-11.4,21.23121,21.23121,0,0,1,5.8-10.1c4.2-4.2,8.7-6.4,13.4-6.7,4.8-.3,9.4,1.4,13.8,5l-7.5,7.5c-2.5-2.2-4.9-3.2-7-3.1s-4.4,1.2-6.7,3.5c-2.5,2.5-3.5,5.2-2.9,8.3.5,3,2.7,6.4,6.4,10.2l2.7,2.7c3.9,3.9,7.4,6.2,10.4,6.8s5.8-.3,8.3-2.9c2.3-2.3,3.5-4.5,3.6-6.7s-.9-4.5-2.9-6.8Z" style="fill:#505050"/><path d="M645.7,369.8l-13.1,13.1,5,9.9-7.9,7.9L607,351l6.9-6.9,49.7,22.6-7.9,7.9Zm-17.1,5.1,9-9-18.1-9Z" style="fill:#505050"/><path d="M666.8,334.6l.3,8.1L677.4,353l-7.5,7.5-36.2-36.2,7.5-7.5,16.4,16.4-1.2-7.8-2.7-21.1,9.2-9.2,3.2,28.9,33.3,6.9-8.9,8.9Z" style="fill:#505050"/><path d="M711.5,287.6l-14.3,14.3,9.7,9.7,16.8-16.8,6,6L705.4,325l-36.2-36.2,24.2-24.2,6,6-16.8,16.8,8.6,8.6,14.3-14.3Z" style="fill:#505050"/><path d="M758.9,240.2l-14.3,14.3,9.7,9.7,16.8-16.8,6,6-24.3,24.3-36.2-36.2,24.2-24.2,6,6L730.1,240l8.6,8.6,14.3-14.3Z" style="fill:#505050"/><path d="M773.7,209.3,768,190l8.6-8.6,7.4,28.5,29.1,7.4-8.7,8.7-19.6-5.7,5.7,19.6-8.7,8.7-7.4-29.1-28.5-7.4,8.6-8.6Z" style="fill:#505050"/><path d="M832.9,182.6l-13.1,13.1,5,9.9-7.9,7.9-22.7-49.7,6.9-6.9,49.7,22.6-7.9,7.9Zm-17.1,5.1,9-9-18.1-9Z" style="fill:#505050"/><path d="M830.8,127.3l35.5,17-17-35.5,9.8-9.8,36.2,36.2-7.5,7.5-9.9-9.9L861.6,115l17.2,36.7-5.1,5.1L837,139.6l17.8,16.3,9.9,9.9-7.5,7.5L821,137Z" style="fill:#505050"/><path d="M899.6,105.4l12.8,12.8-7.5,7.5L868.7,89.5l14.1-14.1a23.40909,23.40909,0,0,1,8.7-5.7,15.48913,15.48913,0,0,1,9-.5,16.05,16.05,0,0,1,7.9,4.6,14.71,14.71,0,0,1,4.7,12c-.4,4.5-2.7,8.9-7,13.2Zm-6.1-6.1,6.7-6.7c2-2,3-3.9,3.1-5.9a7.09537,7.09537,0,0,0-2.4-5.5,8.10638,8.10638,0,0,0-5.9-2.7,8.5299,8.5299,0,0,0-6,2.6l-6.8,6.8Z" style="fill:#505050"/><path d="M942.2,76.2,958,60.4l6,6L940.7,89.7,904.5,53.5,912,46Z" style="fill:#505050"/><path d="M977.5,21.6,963.2,35.9l9.7,9.7,16.8-16.8,6,6L971.4,59.1,935.2,22.9,959.4-1.3l6,6L948.6,21.5l8.6,8.6,14.3-14.3Z" style="fill:#505050"/><path d="M9.6,1170.6c3.6,4.19995,5.2,8.69995,4.9,13.5-.4,4.8-2.7,9.4-6.9,13.6C3,1202.29993-2.3,1204.3999-8,1204s-11.4-3.4-16.9-8.9l-2.2-2.2a32.33542,32.33542,0,0,1-7.4-11,18.67909,18.67909,0,0,1-.8-11.4,21.23125,21.23125,0,0,1,5.8-10.1c4.2-4.19995,8.7-6.4,13.4-6.69995,4.8-.30005,9.4,1.4,13.8,5l-7.5,7.5c-2.5-2.2-4.9-3.2-7-3.1-2.2.1-4.4,1.19995-6.7,3.5-2.5,2.5-3.5,5.19995-2.9,8.3.5,3,2.7,6.4,6.4,10.2l2.7,2.69995c3.9,3.9,7.4,6.19995,10.4,6.80005s5.8-.30005,8.3-2.9c2.3-2.30005,3.5-4.5,3.6-6.7s-.9-4.5-2.9-6.8Z" style="fill:#505050"/><path d="M42.5,1146.80005l-13.1,13.1,5,9.9-7.9,7.9-22.7-49.7,6.9-6.9,49.7,22.6-7.9,7.9Zm-17.1,5.1,9-9-18.1-9Z" style="fill:#505050"/><path d="M63.7,1111.6l.3,8.1L74.3,1130l-7.5,7.5-36.2-36.19995,7.5-7.5,16.4,16.4L53.3,1102.4l-2.7-21.1,9.2-9.19995L63,1101l33.3,6.9-8.9,8.9Z" style="fill:#505050"/><path d="M108.3,1064.6,94,1078.9l9.7,9.7,16.8-16.80005,6,6L102.2,1102.1,66,1065.80005l24.2-24.19995,6,6-16.8,16.8,8.6,8.6,14.3-14.3Z" style="fill:#505050"/><path d="M155.8,1017.2l-14.3,14.3,9.7,9.69995L168,1024.3999l6,6L149.7,1054.7l-36.2-36.2,24.2-24.2,6,6L127,1017l8.6,8.6,14.3-14.3Z" style="fill:#505050"/><path d="M170.6,986.3,164.9,967l8.6-8.6,7.4,28.5,29.1,7.4-8.7,8.7-19.6-5.7,5.7,19.6-8.7,8.7-7.4-29.1-28.5-7.4,8.6-8.6Z" style="fill:#505050"/><path d="M229.7,959.6l-13.1,13.1,5,9.9-7.9,7.9L191,940.9l6.9-6.9,49.7,22.6-7.9,7.9Zm-17.1,5.1,9-9-18.1-9Z" style="fill:#505050"/><path d="M227.6,904.3l35.5,17-17-35.5,9.8-9.8,36.2,36.2-7.5,7.5-9.9-9.9L258.4,892l17.2,36.7-5.1,5.1-36.7-17.2,17.8,16.3,9.9,9.9-7.5,7.5L217.9,914Z" style="fill:#505050"/><path d="M296.4,882.4l12.8,12.8-7.5,7.5-36.2-36.2,14.1-14.1a23.40973,23.40973,0,0,1,8.7-5.7,15.48915,15.48915,0,0,1,9-.5,16.05,16.05,0,0,1,7.9,4.6,14.70984,14.70984,0,0,1,4.7,12c-.4,4.5-2.7,8.9-7,13.2Zm-6-6.1,6.7-6.7c2-2,3-3.9,3.1-5.9a7.09534,7.09534,0,0,0-2.4-5.5,8.10645,8.10645,0,0,0-5.9-2.7,8.52987,8.52987,0,0,0-6,2.6L279,865Z" style="fill:#505050"/><path d="M339.1,853.2l15.8-15.8,6,6-23.3,23.3-36.2-36.2,7.5-7.5Z" style="fill:#505050"/><path d="M374.3,798.6,360,812.9l9.7,9.7,16.8-16.8,6,6L368.2,836,332,799.9l24.2-24.2,6,6-16.8,16.8,8.6,8.6,14.3-14.3Z" style="fill:#505050"/><path d="M466.5,713.7c3.6,4.2,5.2,8.7,4.9,13.5-.4,4.8-2.7,9.4-6.9,13.6-4.6,4.6-9.9,6.7-15.6,6.3s-11.4-3.4-16.9-8.9l-2.2-2.2a32.336,32.336,0,0,1-7.4-11,19.50786,19.50786,0,0,1-.8-11.4,21.23082,21.23082,0,0,1,5.8-10.1c4.2-4.2,8.7-6.4,13.4-6.7,4.8-.3,9.4,1.4,13.8,5l-7.5,7.5c-2.5-2.2-4.9-3.2-7-3.1-2.2.1-4.4,1.2-6.7,3.5-2.5,2.5-3.5,5.2-2.9,8.3.5,3,2.7,6.4,6.4,10.2l2.7,2.7c3.9,3.9,7.4,6.2,10.4,6.8s5.8-.3,8.3-2.9c2.3-2.3,3.5-4.5,3.6-6.7s-.9-4.5-2.9-6.8Z" style="fill:#505050"/><path d="M499.5,689.9,486.4,703l5,9.9-7.9,7.9-22.7-49.7,6.9-6.9,49.7,22.6-7.9,7.9Zm-17.1,5,9-9-18.1-9Z" style="fill:#505050"/><path d="M520.7,654.6l.3,8.1,10.3,10.3-7.5,7.5-36.2-36.2,7.5-7.5,16.4,16.4-1.2-7.8-2.7-21.1,9.2-9.2,3.2,28.9,33.3,6.9-8.9,8.9Z" style="fill:#505050"/><path d="M565.3,607.6,551,621.9l9.7,9.7,16.8-16.8,6,6-24.3,24.3L523,608.9l24.2-24.2,6,6-16.8,16.8,8.6,8.6,14.3-14.3Z" style="fill:#505050"/><path d="M612.7,560.2l-14.3,14.3,9.7,9.7,16.8-16.8,6,6-24.3,24.3-36.2-36.2,24.2-24.2,6,6L583.9,560l8.6,8.6,14.3-14.3Z" style="fill:#505050"/><path d="M627.6,529.3,621.9,510l8.6-8.6,7.4,28.5,29.1,7.4-8.7,8.7-19.6-5.7,5.7,19.6-8.7,8.7-7.4-29.1-28.5-7.4,8.6-8.6Z" style="fill:#505050"/><path d="M686.7,502.7l-13.1,13.1,5,9.9-7.9,7.9L647.9,484l6.9-6.9,49.7,22.6-7.9,7.9Zm-17.1,5,9-9-18.1-9Z" style="fill:#505050"/><path d="M684.6,447.3l35.5,17-17-35.5,9.8-9.8,36.2,36.2-7.5,7.5-9.9-9.9L715.4,435l17.2,36.7-5.1,5.1-36.7-17.2,17.8,16.3,9.9,9.9-7.5,7.5-36.2-36.2Z" style="fill:#505050"/><path d="M753.4,425.4l12.8,12.8-7.5,7.5-36.2-36.2,14.1-14.1a23.40912,23.40912,0,0,1,8.7-5.7,15.48888,15.48888,0,0,1,9-.5,16.05006,16.05006,0,0,1,7.9,4.6,14.71,14.71,0,0,1,4.7,12c-.4,4.5-2.7,8.9-7,13.2Zm-6.1-6.1,6.7-6.7c2-2,3-3.9,3.1-5.9a7.09542,7.09542,0,0,0-2.4-5.5,8.10645,8.10645,0,0,0-5.9-2.7,8.52982,8.52982,0,0,0-6,2.6L736,408Z" style="fill:#505050"/><path d="M796,396.3l15.8-15.8,6,6-23.3,23.3-36.2-36.2,7.5-7.5Z" style="fill:#505050"/><path d="M831.3,341.6,817,355.9l9.7,9.7,16.8-16.8,6,6-24.3,24.3L789,342.9l24.2-24.2,6,6-16.8,16.8,8.6,8.6,14.3-14.3Z" style="fill:#505050"/><path d="M923.5,256.7c3.6,4.2,5.2,8.7,4.9,13.5-.4,4.8-2.7,9.4-6.9,13.6-4.6,4.6-9.9,6.7-15.6,6.3s-11.4-3.4-16.9-8.9l-2.2-2.2a32.3361,32.3361,0,0,1-7.4-11,19.50748,19.50748,0,0,1-.8-11.4,21.23123,21.23123,0,0,1,5.8-10.1c4.2-4.2,8.7-6.4,13.4-6.7,4.8-.3,9.4,1.4,13.8,5l-7.5,7.5c-2.5-2.2-4.9-3.2-7-3.1s-4.4,1.2-6.7,3.5c-2.5,2.5-3.5,5.2-2.9,8.3.5,3,2.7,6.4,6.4,10.2l2.7,2.7c3.9,3.9,7.4,6.2,10.4,6.8s5.8-.3,8.3-2.9c2.3-2.3,3.5-4.5,3.6-6.7s-.9-4.5-2.9-6.8Z" style="fill:#505050"/><path d="M956.5,232.9,943.4,246l5,9.9-7.9,7.9-22.7-49.7,6.9-6.9,49.7,22.6-7.9,7.9Zm-17.1,5,9-9-18.1-9Z" style="fill:#505050"/><path d="M977.6,197.6l.3,8.1L988.2,216l-7.5,7.5-36.2-36.2,7.5-7.5,16.4,16.4-1.2-7.8-2.7-21.1,9.2-9.2,3.2,28.9,33.3,6.9-8.9,8.9Z" style="fill:#505050"/><path d="M1022.3,150.7,1008,165l9.7,9.7,16.8-16.8,6,6-24.3,24.3L980,151.9l24.2-24.2,6,6-16.8,16.8,8.6,8.6,14.3-14.3Z" style="fill:#505050"/><path d="M1069.7,103.2l-14.30005,14.3,9.7,9.7,16.8-16.8,6,6-24.3,24.3-36.2-36.2,24.2-24.2,6,6-16.80005,16.8,8.6,8.6,14.30005-14.3Z" style="fill:#505050"/><path d="M1084.5,72.3,1078.80005,53l8.6-8.6,7.4,28.5,29.1,7.4-8.69995,8.7-19.6-5.7,5.69995,19.6-8.69995,8.7-7.4-29.1-28.5-7.4,8.6-8.6Z" style="fill:#505050"/><path d="M1143.7,45.7l-13.1,13.1,5,9.9-7.9,7.9L1104.9,27l6.9-6.9L1161.5,42.7l-7.9,7.9Zm-17.1,5,9-9-18.1-9Z" style="fill:#505050"/><path d="M1141.5-9.6l35.5,17-17-35.5,9.80005-9.8L1206-1.7l-7.5,7.5-9.9-9.9L1172.4-22l17.2,36.7-5.1,5.1L1147.80005,2.6l17.80005,16.3,9.9,9.9-7.5,7.5L1131.80017.1Z" style="fill:#505050"/><path d="M18.8,1327.9,4.5,1342.20007,14.2,1351.9,31,1335.1l6,6-24.3,24.3-36.2-36.19995L.8,1305l6,6L-10,1327.80005l8.6,8.6,14.3-14.3Z" style="fill:#505050"/><path d="M33.7,1297,28,1277.7l8.6-8.6,7.4,28.5,29.1,7.4L64.4,1313.7,44.8,1308l5.7,19.6-8.7,8.69995-7.4-29.1-28.5-7.4,8.6-8.6Z" style="fill:#505050"/><path d="M92.8,1270.4l-13.1,13.1,5,9.9-7.9,7.9L54,1251.7l6.9-6.9,49.7,22.6-7.9,7.9Zm-17.1,5,9-9-18.1-9Z" style="fill:#505050"/><path d="M90.7,1215.1l35.5,17-17-35.5,9.8-9.80005,36.2,36.2-7.5,7.5-9.9-9.9-16.3-17.80005,17.2,36.7-5.1,5.1-36.7-17.19995,17.8,16.30005,9.9,9.9-7.5,7.5-36.2-36.2Z" style="fill:#505050"/><path d="M159.5,1193.1l12.8,12.8-7.5,7.5-36.2-36.19995,14.1-14.1a23.40947,23.40947,0,0,1,8.7-5.7,15.48957,15.48957,0,0,1,9-.5,16.04912,16.04912,0,0,1,7.9,4.6,14.70981,14.70981,0,0,1,4.7,12c-.4,4.5-2.7,8.9-7,13.2Zm-6-6,6.7-6.7c2-2,3-3.9,3.1-5.9a7.09519,7.09519,0,0,0-2.4-5.5,8.10614,8.10614,0,0,0-5.9-2.69995,8.53009,8.53009,0,0,0-6,2.6l-6.8,6.80005Z" style="fill:#505050"/><path d="M202.1,1164,217.9,1148.2l6,6L200.6,1177.5l-36.2-36.19995,7.5-7.5Z" style="fill:#505050"/><path d="M237.4,1109.4l-14.3,14.30005,9.7,9.69995,16.8-16.8,6,6-24.3,24.3-36.2-36.19995,24.2-24.2,6,6-16.8,16.80005,8.6,8.6,14.3-14.3Z" style="fill:#505050"/><path d="M329.6,1024.4c3.6,4.2,5.2,8.7,4.9,13.5-.4,4.80005-2.7,9.4-6.9,13.6-4.6,4.6-9.9,6.69995-15.6,6.30005s-11.4-3.4-16.9-8.9l-2.2-2.19995a32.33539,32.33539,0,0,1-7.4-11,19.50788,19.50788,0,0,1-.8-11.4,21.231,21.231,0,0,1,5.8-10.1c4.2-4.2,8.7-6.4,13.4-6.7,4.8-.3,9.4,1.4,13.8,5l-7.5,7.5c-2.5-2.2-4.9-3.2-7-3.1-2.2.1-4.4,1.2-6.7,3.5-2.5,2.5-3.5,5.2-2.9,8.3.5,3,2.7,6.4,6.4,10.19995l2.7,2.7c3.9,3.9,7.4,6.19995,10.4,6.8s5.8-.3,8.3-2.9c2.3-2.30005,3.5-4.5,3.6-6.69995s-.9-4.5-2.9-6.80005Z" style="fill:#505050"/><path d="M362.6,1000.6l-13.1,13.1,5,9.9-7.9,7.9-22.7-49.7,6.9-6.9,49.7,22.6-7.9,7.9Zm-17.1,5.1,9-9-18.1-9Z" style="fill:#505050"/><path d="M383.7,965.4l.3,8.1,10.3,10.3-7.5,7.5L350.7,955l7.5-7.5,16.4,16.4-1.2-7.8-2.7-21.1,9.2-9.2,3.2,28.9,33.3,6.9-8.9,8.9Z" style="fill:#505050"/><path d="M428.4,918.4,414,932.7l9.7,9.7,16.8-16.8,6,6-24.3,24.3L386,919.7l24.2-24.2,6,6-16.8,16.8,8.6,8.6,14.3-14.3Z" style="fill:#505050"/><path d="M475.8,871l-14.3,14.3,9.7,9.7L488,878.2l6,6-24.3,24.3-36.2-36.2,24.2-24.2,6,6L447,870.8l8.6,8.6,14.3-14.3Z" style="fill:#505050"/><path d="M490.6,840.1l-5.7-19.3,8.6-8.6,7.4,28.5,29.1,7.4-8.7,8.7-19.6-5.7,5.7,19.6-8.7,8.7-7.4-29.1-28.5-7.4,8.6-8.6Z" style="fill:#505050"/><path d="M549.8,813.4l-13.1,13.1,5,9.9-7.9,7.9L511,794.7l6.9-6.9,49.7,22.6-7.9,7.9Zm-17.1,5.1,9-9-18.1-9Z" style="fill:#505050"/><path d="M547.6,758.1l35.5,17-17-35.5,9.8-9.8L612.1,766l-7.5,7.5-9.9-9.9-16.3-17.8,17.2,36.7-5.1,5.1-36.7-17.2,17.8,16.3,9.9,9.9-7.5,7.5-36.2-36.2Z" style="fill:#505050"/><path d="M616.5,736.2,629.3,749l-7.5,7.5-36.2-36.2,14.1-14.1a23.40957,23.40957,0,0,1,8.7-5.7,15.48905,15.48905,0,0,1,9-.5,16.05021,16.05021,0,0,1,7.9,4.6,14.71,14.71,0,0,1,4.7,12c-.4,4.5-2.7,8.9-7,13.2Zm-6.1-6.1,6.7-6.7c2-2,3-3.9,3.1-5.9a7.09537,7.09537,0,0,0-2.4-5.5,8.10646,8.10646,0,0,0-5.9-2.7,8.52993,8.52993,0,0,0-6,2.6l-6.8,6.8Z" style="fill:#505050"/><path d="M659.1,707l15.8-15.8,6,6-23.3,23.3-36.2-36.2,7.5-7.5Z" style="fill:#505050"/><path d="M694.4,652.4,680,666.7l9.7,9.7,16.8-16.8,6,6-24.3,24.3L652,653.7l24.2-24.2,6,6-16.8,16.8,8.6,8.6,14.3-14.3Z" style="fill:#505050"/><path d="M786.5,567.5c3.6,4.2,5.2,8.7,4.9,13.5-.4,4.8-2.7,9.4-6.9,13.6-4.6,4.6-9.9,6.7-15.6,6.3s-11.4-3.4-16.9-8.9l-2.2-2.2a32.3362,32.3362,0,0,1-7.4-11,19.50762,19.50762,0,0,1-.8-11.4,21.23107,21.23107,0,0,1,5.8-10.1c4.2-4.2,8.7-6.4,13.4-6.7,4.8-.3,9.4,1.4,13.8,5l-7.5,7.5c-2.5-2.2-4.9-3.2-7-3.1-2.2.1-4.4,1.2-6.7,3.5-2.5,2.5-3.5,5.2-2.9,8.3.5,3,2.7,6.4,6.4,10.2l2.7,2.7c3.9,3.9,7.4,6.2,10.4,6.8s5.8-.3,8.3-2.9c2.3-2.3,3.5-4.5,3.6-6.7s-.9-4.5-2.9-6.8Z" style="fill:#505050"/><path d="M819.5,543.7l-13.1,13.1,5,9.9-7.9,7.9L780.8,525l6.9-6.9,49.7,22.6-7.9,7.9Zm-17.1,5,9-9-18.1-9Z" style="fill:#505050"/><path d="M840.7,508.4l.3,8.1,10.3,10.3-7.5,7.5-36.2-36.2,7.5-7.5L831.5,507l-1.2-7.8-2.7-21.1,9.2-9.2,3.2,28.9,33.3,6.9-8.9,8.9Z" style="fill:#505050"/><path d="M885.3,461.4,871,475.7l9.7,9.7,16.8-16.8,6,6-24.3,24.3L843,462.7l24.2-24.2,6,6-16.8,16.8,8.6,8.6,14.3-14.3Z" style="fill:#505050"/><path d="M932.8,414l-14.3,14.3,9.7,9.7L945,421.2l6,6-24.3,24.3-36.2-36.2,24.2-24.2,6,6L904,413.9l8.6,8.6,14.3-14.3Z" style="fill:#505050"/><path d="M947.6,383.1l-5.7-19.3,8.6-8.6,7.4,28.5,29.1,7.4-8.7,8.7-19.6-5.7,5.7,19.6-8.7,8.7-7.4-29.1-28.5-7.4,8.6-8.6Z" style="fill:#505050"/><path d="M1006.7,356.5l-13.1,13.1,5,9.9-7.9,7.9L968,337.8l6.9-6.9,49.7,22.6-7.9,7.9Zm-17.1,5,9-9-18.1-9Z" style="fill:#505050"/><path d="M1004.6,301.1l35.5,17-17-35.5,9.8-9.8,36.2,36.2-7.5,7.5-9.9-9.9-16.30005-17.8,17.2,36.7-5.1,5.1-36.7-17.2,17.8,16.3,9.9,9.9-7.5,7.5-36.2-36.2Z" style="fill:#505050"/><path d="M1073.4,279.2l12.80005,12.8-7.5,7.5-36.2-36.2,14.1-14.1a23.40889,23.40889,0,0,1,8.69995-5.7,15.489,15.489,0,0,1,9-.5,16.04991,16.04991,0,0,1,7.9,4.6,14.70973,14.70973,0,0,1,4.69995,12c-.4,4.4-2.69995,8.9-7,13.2Zm-6-6,6.7-6.7c2-2,3-3.9,3.1-5.9a7.09517,7.09517,0,0,0-2.4-5.5,8.10637,8.10637,0,0,0-5.9-2.7,8.5299,8.5299,0,0,0-6,2.6l-6.8,6.8Z" style="fill:#505050"/><path d="M1116.1,250.1l15.8-15.8,6,6-23.3,23.3-36.2-36.2,7.5-7.5Z" style="fill:#505050"/><path d="M1151.30005,195.4,1137,209.7l9.69995,9.7L1163.5,202.6l6,6L1145.2,232.9,1109,196.7,1133.2,172.5l6,6-16.80005,16.8,8.6,8.6,14.3-14.3Z" style="fill:#505050"/><path d="M183.4,1344.5c3.6,4.19995,5.2,8.69995,4.9,13.5-.4,4.80005-2.7,9.4-6.9,13.6-4.6,4.6-9.9,6.69995-15.6,6.3s-11.4-3.4-16.9-8.9l-2.2-2.19995a32.33542,32.33542,0,0,1-7.4-11,18.6792,18.6792,0,0,1-.8-11.4,21.23114,21.23114,0,0,1,5.8-10.1c4.2-4.19995,8.7-6.4,13.4-6.69995,4.8-.30005,9.4,1.4,13.8,5l-7.5,7.5c-2.5-2.2-4.9-3.2-7-3.1-2.2.1-4.4,1.2-6.7,3.5-2.5,2.5-3.5,5.2-2.9,8.30005.5,3,2.7,6.4,6.4,10.19995l2.7,2.7c3.9,3.9,7.4,6.19995,10.4,6.8s5.8-.3,8.3-2.9c2.3-2.30005,3.5-4.5,3.6-6.7s-.9-4.5-2.9-6.8Z" style="fill:#505050"/><path d="M216.4,1320.7l-13.1,13.1,5,9.9-7.9,7.9-22.7-49.7,6.9-6.9,49.7,22.6-7.9,7.9Zm-17.1,5,9-9-18.1-9Z" style="fill:#505050"/><path d="M237.5,1285.4l.3,8.1,10.3,10.30005-7.5,7.5-36.2-36.19995,7.5-7.5,16.4,16.4-1.2-7.8-2.7-21.1,9.2-9.2,3.2,28.9,33.3,6.9-8.9,8.9Z" style="fill:#505050"/><path d="M282.2,1238.4l-14.3,14.30005,9.7,9.69995,16.8-16.8,6,6-24.3,24.3-36.2-36.19995,24.2-24.2,6,6-16.8,16.80005,8.6,8.6,14.3-14.3Z" style="fill:#505050"/><path d="M329.6,1191l-14.3,14.30005L325,1215,341.8,1198.2l6,6L323.5,1228.5l-36.2-36.19995,24.2-24.19995,6,6-16.8,16.8,8.6,8.6,14.3-14.3Z" style="fill:#505050"/><path d="M344.4,1160.1l-5.7-19.30005,8.6-8.6,7.4,28.5,29.1,7.4-8.7,8.69995L355.5,1171.1l5.7,19.6-8.7,8.69995-7.4-29.1-28.5-7.4,8.6-8.6Z" style="fill:#505050"/><path d="M403.6,1133.5l-13.1,13.1,5,9.9-7.9,7.9-22.7-49.69995,6.9-6.9,49.7,22.6-7.9,7.9Zm-17.1,5,9-9-18.1-9Z" style="fill:#505050"/><path d="M401.5,1078.1l35.5,17-17-35.5,9.8-9.80005L466,1086l-7.5,7.5-9.9-9.9-16.3-17.80005,17.2,36.7-5.1,5.1-36.7-17.2L425.5,1106.7l9.9,9.9-7.5,7.5-36.2-36.2Z" style="fill:#505050"/><path d="M470.3,1056.2,483.1,1069l-7.5,7.5-36.2-36.19995,14.1-14.1a23.40981,23.40981,0,0,1,8.7-5.7,15.48916,15.48916,0,0,1,9-.5,16.04966,16.04966,0,0,1,7.9,4.6,14.70987,14.70987,0,0,1,4.7,12c-.4,4.5-2.7,8.9-7,13.19995Zm-6.1-6,6.7-6.69995c2-2,3-3.9,3.1-5.9a7.09526,7.09526,0,0,0-2.4-5.5,8.10618,8.10618,0,0,0-5.9-2.7,8.5301,8.5301,0,0,0-6,2.6l-6.8,6.80005Z" style="fill:#505050"/><path d="M512.9,1027.1l15.8-15.8,6,6-23.3,23.3-36.2-36.2,7.5-7.5Z" style="fill:#505050"/><path d="M548.2,972.4l-14.3,14.3,9.7,9.7,16.8-16.8,6,6-24.3,24.3-36.2-36.2,24.2-24.2,6,6-16.8,16.8,8.6,8.6,14.3-14.3Z" style="fill:#505050"/><path d="M640.4,887.5c3.6,4.2,5.2,8.7,4.9,13.5-.4,4.8-2.7,9.4-6.9,13.6-4.6,4.6-9.9,6.7-15.6,6.3s-11.4-3.4-16.9-8.9l-2.2-2.2a32.33616,32.33616,0,0,1-7.4-11,19.50762,19.50762,0,0,1-.8-11.4,21.23109,21.23109,0,0,1,5.8-10.1c4.2-4.2,8.7-6.4,13.4-6.7,4.8-.3,9.4,1.4,13.8,5l-7.5,7.5c-2.5-2.2-4.9-3.2-7-3.1-2.2.1-4.4,1.2-6.7,3.5-2.5,2.5-3.5,5.2-2.9,8.3.5,3,2.7,6.4,6.4,10.2l2.7,2.7c3.9,3.9,7.4,6.2,10.4,6.8s5.8-.3,8.3-2.9c2.3-2.3,3.5-4.5,3.6-6.7s-.9-4.5-2.9-6.8Z" style="fill:#505050"/><path d="M673.3,863.7l-13.1,13.1,5,9.9-7.9,7.9L634.6,845l6.9-6.9,49.7,22.6-7.9,7.9Zm-17.1,5,9-9-18.1-9Z" style="fill:#505050"/><path d="M694.5,828.4l.3,8.1,10.3,10.3-7.5,7.5-36.2-36.2,7.5-7.5L685.3,827l-1.2-7.8-2.7-21.1,9.2-9.2,3.2,28.9,33.3,6.9-8.9,8.9Z" style="fill:#505050"/><path d="M739.1,781.5l-14.3,14.3,9.7,9.7,16.8-16.8,6,6L733,818.9l-36.2-36.2L721,758.5l6,6-16.8,16.8,8.6,8.6,14.3-14.3Z" style="fill:#505050"/><path d="M786.6,734l-14.3,14.3L782,758l16.8-16.8,6,6-24.3,24.3-36.2-36.2,24.2-24.2,6,6-16.8,16.8,8.6,8.6,14.3-14.3Z" style="fill:#505050"/><path d="M801.4,703.1l-5.7-19.3,8.6-8.6,7.4,28.5,29.1,7.4-8.7,8.7-19.6-5.7,5.7,19.6-8.7,8.7-7.4-29.1-28.5-7.4,8.6-8.6Z" style="fill:#505050"/><path d="M860.5,676.5l-13.1,13.1,5,9.9-7.9,7.9-22.7-49.7,6.9-6.9,49.7,22.6-7.9,7.9Zm-17.1,5,9-9-18.1-9Z" style="fill:#505050"/><path d="M858.4,621.2l35.5,17-17-35.5,9.8-9.8L923,629l-7.5,7.5-9.9-9.9-16.3-17.8,17.2,36.7-5.1,5.1-36.7-17.2,17.8,16.3,9.9,9.9-7.5,7.5-36.2-36.2Z" style="fill:#505050"/><path d="M927.2,599.2,940,612l-7.5,7.5-36.2-36.2,14.1-14.1a23.4096,23.4096,0,0,1,8.7-5.7,15.489,15.489,0,0,1,9-.5,16.05022,16.05022,0,0,1,7.9,4.6,14.70993,14.70993,0,0,1,4.7,12c-.4,4.5-2.7,8.9-7,13.2Zm-6-6,6.7-6.7c2-2,3-3.9,3.1-5.9a7.09537,7.09537,0,0,0-2.4-5.5,8.10649,8.10649,0,0,0-5.9-2.7,8.53,8.53,0,0,0-6,2.6l-6.8,6.8Z" style="fill:#505050"/><path d="M969.9,570.1l15.8-15.8,6,6-23.3,23.3-36.2-36.2,7.5-7.5Z" style="fill:#505050"/><path d="M1005.1,515.5l-14.3,14.3,9.7,9.7,16.8-16.8,6,6L999,552.9l-36.2-36.2L987,492.5l6,6-16.8,16.8,8.6,8.6,14.3-14.3Z" style="fill:#505050"/><path d="M1097.30005,430.5c3.6,4.2,5.19995,8.7,4.9,13.5-.4,4.8-2.7,9.4-6.9,13.6-4.6,4.6-9.9,6.7-15.6,6.3s-11.4-3.4-16.9-8.9l-2.19995-2.2a32.3361,32.3361,0,0,1-7.4-11,19.50861,19.50861,0,0,1-.80005-11.4,21.23138,21.23138,0,0,1,5.80005-10.1c4.19995-4.2,8.69995-6.4,13.4-6.7,4.8-.3,9.4,1.4,13.8,5l-7.5,7.5c-2.5-2.2-4.9-3.2-7-3.1s-4.4,1.2-6.69995,3.5c-2.5,2.5-3.5,5.2-2.9,8.3.5,3,2.69995,6.4,6.4,10.2l2.69995,2.7c3.9,3.9,7.4,6.2,10.4,6.8s5.80005-.3,8.30005-2.9c2.30005-2.3,3.5-4.5,3.6-6.7s-.9-4.5-2.9-6.8Z" style="fill:#505050"/><path d="M1130.30005,406.7l-13.1,13.1,5,9.9-7.9,7.9-22.69995-49.7,6.9-6.9,49.7,22.6-7.9,7.9ZM1113.2,411.8l9-9-18.1-9Z" style="fill:#505050"/><path d="M1151.5,371.5l.30005,8.1,10.30005,10.3-7.5,7.5-36.2-36.2,7.5-7.5,16.4,16.4-1.19995-7.8-2.69995-21.1,9.19995-9.2,3.19995,28.9,33.30005,6.9-8.9,8.9Z" style="fill:#505050"/><path d="M264.5,1388.9l35.5,17-17-35.5,9.8-9.8,36.2,36.19995-7.5,7.5-9.9-9.9-16.3-17.8,17.2,36.69995-5.1,5.1-36.7-17.19995,17.8,16.30005,9.9,9.9-7.5,7.5L254.7,1398.7Z" style="fill:#505050"/><path d="M333.3,1367l12.8,12.80005-7.5,7.5-36.2-36.19995,14.1-14.1a23.40963,23.40963,0,0,1,8.7-5.69995,15.48966,15.48966,0,0,1,9-.5,16.04909,16.04909,0,0,1,7.9,4.6,14.70987,14.70987,0,0,1,4.7,12c-.4,4.5-2.7,8.9-7,13.2Zm-6-6.1,6.7-6.69995c2-2,3-3.9,3.1-5.9a7.0953,7.0953,0,0,0-2.4-5.5,8.10614,8.10614,0,0,0-5.9-2.69995,8.53009,8.53009,0,0,0-6,2.6l-6.8,6.8Z" style="fill:#505050"/><path d="M376,1337.80005,391.8,1322l6,6-23.3,23.30005-36.2-36.19995,7.5-7.5Z" style="fill:#505050"/><path d="M411.2,1283.2,396.9,1297.5l9.7,9.69995,16.8-16.80005,6,6L405.1,1320.7,368.9,1284.5l24.2-24.19995,6,6-16.8,16.80005,8.6,8.6L405.2,1277.4Z" style="fill:#505050"/><path d="M503.4,1198.30005c3.6,4.19995,5.2,8.69995,4.9,13.5-.4,4.80005-2.7,9.4-6.9,13.6-4.6,4.6-9.9,6.7-15.6,6.30005s-11.4-3.4-16.9-8.9l-2.2-2.19995a32.33539,32.33539,0,0,1-7.4-11,18.679,18.679,0,0,1-.8-11.4,21.23112,21.23112,0,0,1,5.8-10.1c4.2-4.2,8.7-6.4,13.4-6.7,4.8-.3,9.4,1.4,13.8,5l-7.5,7.5c-2.5-2.19995-4.9-3.19995-7-3.1-2.2.1-4.4,1.19995-6.7,3.5-2.5,2.5-3.5,5.19995-2.9,8.30005.5,3,2.7,6.4,6.4,10.19995l2.7,2.69995c3.9,3.9,7.4,6.2,10.4,6.80005s5.8-.30005,8.3-2.9c2.3-2.3,3.5-4.5,3.6-6.69995s-.9-4.5-2.9-6.80005Z" style="fill:#505050"/><path d="M536.4,1174.5l-13.1,13.1,5,9.9-7.9,7.9-22.7-49.69995,6.9-6.9,49.7,22.6-7.9,7.9Zm-17.1,5,9-9-18.1-9Z" style="fill:#505050"/><path d="M557.6,1139.2l.3,8.1,10.3,10.30005-7.5,7.5-36.2-36.2,7.5-7.5,16.4,16.4-1.2-7.80005-2.7-21.1,9.2-9.19995,3.2,28.9,33.3,6.9-8.9,8.9Z" style="fill:#505050"/><path d="M602.2,1092.2,587.9,1106.5l9.7,9.69995,16.8-16.80005,6,6L596.1,1129.7,559.9,1093.5l24.2-24.19995,6,6-16.8,16.80005,8.6,8.6L596.2,1086.4Z" style="fill:#505050"/><path d="M649.6,1044.80005l-14.3,14.30005,9.7,9.69995L661.8,1052l6,6-24.3,24.30005-36.2-36.19995,24.2-24.2,6,6.00006-16.8,16.80005,8.6,8.6,14.3-14.30005Z" style="fill:#505050"/><path d="M664.5,1013.9l-5.7-19.3,8.6-8.6,7.4,28.5,29.1,7.4-8.7,8.7-19.6-5.7,5.7,19.6-8.7,8.7-7.4-29.1-28.5-7.4,8.6-8.6Z" style="fill:#505050"/><path d="M723.6,987.3l-13.1,13.1,5,9.9-7.9,7.9-22.7-49.7,6.9-6.9,49.7,22.6-7.9,7.9Zm-17.1,5,9-9-18.1-9Z" style="fill:#505050"/><path d="M721.5,931.9l35.5,17-17-35.5,9.8-9.8,36.2,36.2-7.5,7.5-9.9-9.9-16.3-17.8,17.2,36.7-5.1,5.1-36.7-17.2,17.8,16.3,9.9,9.9-7.5,7.5-36.2-36.2Z" style="fill:#505050"/><path d="M790.3,910l12.8,12.8-7.5,7.5L759.4,894l14.1-14.1a23.40957,23.40957,0,0,1,8.7-5.7,15.48914,15.48914,0,0,1,9-.5,16.05021,16.05021,0,0,1,7.9,4.6,14.71,14.71,0,0,1,4.7,12c-.4,4.4-2.7,8.9-7,13.2Zm-6-6,6.7-6.7c2-2,3-3.9,3.1-5.9a7.09543,7.09543,0,0,0-2.4-5.5,8.10649,8.10649,0,0,0-5.9-2.7,8.52991,8.52991,0,0,0-6,2.6l-6.8,6.8Z" style="fill:#505050"/><path d="M833,880.9l15.8-15.8,6,6-23.3,23.3-36.2-36.2,7.5-7.5Z" style="fill:#505050"/><path d="M868.2,826.2l-14.3,14.3,9.7,9.7,16.8-16.8,6,6-24.3,24.3-36.2-36.2,24.2-24.2,6,6-16.8,16.8,8.6,8.6,14.3-14.3Z" style="fill:#505050"/><path d="M960.4,741.3c3.6,4.2,5.2,8.7,4.9,13.5-.4,4.8-2.7,9.4-6.9,13.6-4.6,4.6-9.9,6.7-15.6,6.3s-11.4-3.4-16.9-8.9l-2.2-2.2a32.33607,32.33607,0,0,1-7.4-11,18.67894,18.67894,0,0,1-.8-11.4,21.23112,21.23112,0,0,1,5.8-10.1c4.2-4.2,8.7-6.4,13.4-6.7,4.8-.3,9.4,1.4,13.8,5l-7.5,7.5c-2.5-2.2-4.9-3.2-7-3.1-2.2.1-4.4,1.2-6.7,3.5-2.5,2.5-3.5,5.2-2.9,8.3.5,3,2.7,6.4,6.4,10.2l2.7,2.7c3.9,3.9,7.4,6.2,10.4,6.8s5.8-.3,8.3-2.9c2.3-2.3,3.5-4.5,3.6-6.7s-.9-4.5-2.9-6.8Z" style="fill:#505050"/><path d="M993.4,717.5l-13.1,13.1,5,9.9-7.9,7.9-22.7-49.7,6.9-6.9,49.7,22.6-7.9,7.9Zm-17.1,5,9-9-18.1-9Z" style="fill:#505050"/><path d="M1014.5,682.3l.3,8.1,10.3,10.3-7.5,7.5-36.2-36.2,7.5-7.5,16.4,16.4-1.2-7.8-2.7-21.1,9.2-9.2,3.2,28.9,33.3,6.9-8.9,8.9Z" style="fill:#505050"/><path d="M1059.2,635.3l-14.30005,14.3,9.7,9.7,16.8-16.8,6,6-24.3,24.3-36.2-36.2,24.2-24.2,6,6-16.80005,16.8,8.6,8.6,14.30005-14.3Z" style="fill:#505050"/><path d="M1106.6,587.8l-14.30005,14.3,9.7,9.7,16.8-16.8,6,6-24.3,24.3-36.2-36.2,24.2-24.2,6,6-16.80005,16.8,8.6,8.6,14.30005-14.3Z" style="fill:#505050"/><path d="M1121.4,556.9l-5.69995-19.3,8.6-8.6,7.4,28.5,29.1,7.4-8.69995,8.7-19.6-5.7,5.7,19.6-8.7,8.7-7.4-29.1-28.5-7.4,8.6-8.6Z" style="fill:#505050"/><path d="M503.4,1364.80005l-14.3,14.30005,9.7,9.69995L515.6,1372l6,6-24.3,24.30005-36.2-36.19995,24.2-24.2,6,6-16.8,16.80005,8.6,8.6,14.3-14.30005Z" style="fill:#505050"/><path d="M518.3,1333.9l-5.7-19.3,8.6-8.6,7.4,28.5,29.1,7.4-8.7,8.7-19.6-5.7,5.7,19.6L526.4,1373.2l-7.4-29.1-28.5-7.4,8.6-8.6Z" style="fill:#505050"/><path d="M577.4,1307.30005l-13.1,13.1,5,9.9-7.9,7.9-22.7-49.7,6.9-6.9,49.7,22.6-7.9,7.9Zm-17.1,5,9-9-18.1-9Z" style="fill:#505050"/><path d="M575.3,1252l35.5,17-17-35.5,9.8-9.80005,36.2,36.19995-7.5,7.5-9.9-9.9-16.3-17.80005,17.2,36.69995-5.1,5.1-36.7-17.2,17.8,16.30005,9.9,9.9-7.5,7.5-36.2-36.2Z" style="fill:#505050"/><path d="M644.1,1230l12.8,12.80005-7.5,7.5-36.2-36.19995,14.1-14.1a23.40931,23.40931,0,0,1,8.7-5.69995,15.48963,15.48963,0,0,1,9-.5,16.04932,16.04932,0,0,1,7.9,4.6,14.71,14.71,0,0,1,4.7,12c-.4,4.4-2.7,8.9-7,13.2Zm-6-6,6.7-6.69995c2-2,3-3.9,3.1-5.9a7.0953,7.0953,0,0,0-2.4-5.5,8.1062,8.1062,0,0,0-5.9-2.69995,8.5302,8.5302,0,0,0-6,2.6l-6.8,6.80005Z" style="fill:#505050"/><path d="M686.8,1200.9l15.8-15.8,6,6-23.3,23.3-36.2-36.19995,7.5-7.5Z" style="fill:#505050"/><path d="M722,1146.30005l-14.3,14.30005,9.7,9.69995L734.2,1153.5l6,6-24.3,24.30005-36.2-36.19995,24.2-24.2,6,6-16.8,16.80005,8.6,8.6,14.3-14.30005Z" style="fill:#505050"/><path d="M814.2,1061.30005c3.6,4.19995,5.2,8.69995,4.9,13.5-.4,4.80005-2.7,9.4-6.9,13.6-4.6,4.6-9.9,6.7-15.6,6.30005s-11.4-3.4-16.9-8.9l-2.2-2.19995a32.33549,32.33549,0,0,1-7.4-11,18.6789,18.6789,0,0,1-.8-11.4,21.23137,21.23137,0,0,1,5.8-10.1c4.2-4.2,8.7-6.4,13.4-6.7,4.8-.3,9.4,1.4,13.8,5l-7.5,7.5c-2.5-2.19995-4.9-3.19995-7-3.1-2.2.1-4.4,1.19995-6.7,3.5-2.5,2.5-3.5,5.19995-2.9,8.30005.5,3,2.7,6.4,6.4,10.19995l2.7,2.69995c3.9,3.9,7.4,6.2,10.4,6.80005s5.8-.30005,8.3-2.9c2.3-2.3,3.5-4.5,3.6-6.69995s-.9-4.5-2.9-6.80005Z" style="fill:#505050"/><path d="M847.2,1037.6l-13.1,13.1,5,9.9-7.9,7.9-22.7-49.7,6.9-6.9,49.7,22.6-7.9,7.9Zm-17.1,5,9-9-18.1-9Z" style="fill:#505050"/><path d="M868.3,1002.3l.3,8.1,10.3,10.3-7.5,7.5-36.2-36.2,7.5-7.5,16.4,16.4-1.2-7.8L855.2,972l9.2-9.2,3.2,28.9,33.3,6.9-8.9,8.9Z" style="fill:#505050"/><path d="M913,955.3l-14.3,14.3,9.7,9.7,16.8-16.8,6,6-24.3,24.3-36.2-36.2,24.2-24.2,6,6-16.8,16.8,8.6,8.6,14.3-14.3Z" style="fill:#505050"/><path d="M960.4,907.9l-14.3,14.3,9.7,9.7,16.8-16.8,6,6-24.3,24.3-36.2-36.2,24.2-24.2,6,6-16.8,16.8,8.6,8.6,14.3-14.3Z" style="fill:#505050"/><path d="M975.2,877l-5.7-19.3,8.6-8.6,7.4,28.5,29.1,7.4-8.7,8.7-19.6-5.7,5.7,19.6-8.7,8.7-7.4-29.1-28.5-7.4,8.6-8.6Z" style="fill:#505050"/><path d="M1034.4,850.4l-13.1,13.1,5,9.9-7.9,7.9-22.7-49.7,6.9-6.9,49.7,22.6-7.9,7.9Zm-17.1,5,9.00006-9-18.1-9Z" style="fill:#505050"/><path d="M1032.30005,795l35.5,17-17-35.5,9.80005-9.8,36.19995,36.2-7.5,7.5-9.9-9.9-16.3-17.8,17.19995,36.7-5.1,5.1L1038.5,807.3l17.80005,16.3,9.9,9.9-7.5,7.5-36.2-36.2Z" style="fill:#505050"/><path d="M1101.1,773.1l12.8,12.8-7.5,7.5-36.19995-36.2,14.1-14.1A23.4092,23.4092,0,0,1,1093,737.4a15.48914,15.48914,0,0,1,9-.5,16.05033,16.05033,0,0,1,7.9,4.6,14.70973,14.70973,0,0,1,4.7,12c-.4,4.5-2.7,8.9-7,13.2ZM1095,767l6.69995-6.7c2-2,3-3.9,3.1-5.9a7.0952,7.0952,0,0,0-2.4-5.5,8.10649,8.10649,0,0,0-5.9-2.7,8.52991,8.52991,0,0,0-6,2.6l-6.80005,6.8Z" style="fill:#505050"/><path d="M1143.7,743.9,1159.5,728.1l6,6L1142.2,757.4,1106,721.2l7.5-7.5Z" style="fill:#505050"/><path d="M677.3,1372.1c3.6,4.19995,5.2,8.69995,4.9,13.5-.4,4.8-2.7,9.4-6.9,13.6-4.6,4.6-9.9,6.69995-15.6,6.30005s-11.4-3.4-16.9-8.9l-2.2-2.2a32.33553,32.33553,0,0,1-7.4-11,18.67894,18.67894,0,0,1-.8-11.4,21.23148,21.23148,0,0,1,5.8-10.1c4.2-4.19995,8.7-6.4,13.4-6.69995,4.8-.30005,9.4,1.4,13.8,5l-7.5,7.5c-2.5-2.2-4.9-3.2-7-3.1-2.2.1-4.4,1.19995-6.7,3.5-2.5,2.5-3.5,5.19995-2.9,8.3.5,3,2.7,6.4,6.4,10.2l2.7,2.69995c3.9,3.9,7.4,6.19995,10.4,6.80005s5.8-.30005,8.3-2.9c2.3-2.30005,3.5-4.5,3.6-6.7s-.9-4.5-2.9-6.8Z" style="fill:#505050"/><path d="M710.2,1348.30005l-13.1,13.1,5,9.9-7.9,7.9-22.7-49.7,6.9-6.9,49.7,22.6-7.9,7.9Zm-17.1,5,9-9-18.1-9Z" style="fill:#505050"/><path d="M731.4,1313.1l.3,8.1L742,1331.5l-7.5,7.5-36.2-36.19995,7.5-7.5,16.4,16.4L721,1303.9l-2.7-21.1,9.2-9.19995,3.2,28.9,33.3,6.9-8.9,8.9Z" style="fill:#505050"/><path d="M776,1266.1l-14.3,14.3,9.7,9.7,16.8-16.80005,6,6L769.9,1303.6l-36.2-36.2,24.2-24.19995,6,6-16.8,16.8,8.6,8.6,14.3-14.30005Z" style="fill:#505050"/><path d="M823.5,1218.6l-14.3,14.3,9.7,9.7,16.8-16.80005,6,6L817.4,1256.1l-36.2-36.2,24.2-24.19995,6,6-16.8,16.8,8.6,8.6,14.3-14.30005Z" style="fill:#505050"/><path d="M838.3,1187.80005,832.6,1168.5l8.6-8.6,7.4,28.5,29.1,7.4-8.7,8.69995-19.6-5.69995,5.7,19.6-8.7,8.7L839,1198l-28.5-7.4,8.6-8.6Z" style="fill:#505050"/><path d="M897.4,1161.1l-13.1,13.1,5,9.9-7.9,7.9-22.7-49.69995,6.9-6.9,49.7,22.6-7.9,7.9Zm-17.1,5.1,9-9-18.1-9Z" style="fill:#505050"/><path d="M895.3,1105.80005l35.5,17-17-35.5,9.8-9.80005L959.8,1113.7l-7.5,7.5-9.9-9.9-16.3-17.8,17.2,36.69995-5.1,5.1-36.7-17.19995,17.8,16.3,9.9,9.9-7.5,7.5L885.5,1115.6Z" style="fill:#505050"/><path d="M964.1,1083.80005l12.8,12.80005-7.5,7.5-36.2-36.2,14.1-14.1a23.40931,23.40931,0,0,1,8.7-5.69995,15.48954,15.48954,0,0,1,9-.5,16.04932,16.04932,0,0,1,7.9,4.6,14.71,14.71,0,0,1,4.7,12c-.4,4.5-2.7,8.9-7,13.19995Zm-6-6,6.7-6.69995c2-2,3-3.9,3.1-5.9a7.09529,7.09529,0,0,0-2.4-5.5,8.10616,8.10616,0,0,0-5.9-2.7,8.5302,8.5302,0,0,0-6,2.6l-6.8,6.8Z" style="fill:#505050"/><path d="M1006.8,1054.7l15.8-15.80005,6,6L1005.3,1068.2,969.1,1032l7.5-7.5Z" style="fill:#505050"/><path d="M1042,1000.1,1027.7,1014.4l9.69995,9.7L1054.2,1007.3l6,6-24.30005,24.3-36.2-36.2,24.2-24.2,6,6-16.8,16.8,8.6,8.6,14.3-14.3Z" style="fill:#505050"/><path d="M1134.2,915.2c3.6,4.2,5.19995,8.7,4.9,13.5-.4,4.8-2.7,9.4-6.9,13.6-4.6,4.6-9.9,6.7-15.6,6.3s-11.4-3.4-16.9-8.9l-2.19995-2.2a32.33607,32.33607,0,0,1-7.4-11,19.50855,19.50855,0,0,1-.80005-11.4,21.23023,21.23023,0,0,1,5.80005-10.1c4.19995-4.2,8.69995-6.4,13.4-6.7s9.4,1.4,13.80005,5l-7.5,7.5c-2.5-2.2-4.9-3.2-7-3.1-2.19995.1-4.4,1.2-6.69995,3.5-2.5,2.5-3.5,5.2-2.9,8.3.5,3,2.69995,6.4,6.4,10.2l2.69995,2.7c3.9,3.9,7.4,6.2,10.4,6.8s5.8-.3,8.3-2.9c2.30005-2.3,3.5-4.5,3.6-6.7s-.9-4.5-2.9-6.8Z" style="fill:#505050"/><path d="M1167.2,891.4l-13.1,13.1,5,9.9-7.9,7.9L1128.5,872.6l6.9-6.9,49.7,22.6-7.9,7.9Zm-17.1,5,9-9-18.1-9Z" style="fill:#505050"/><path d="M818,1403.9l12.8,12.80005-7.5,7.5-36.2-36.2,14.1-14.1a23.40926,23.40926,0,0,1,8.7-5.69995,15.48947,15.48947,0,0,1,9-.5,16.04936,16.04936,0,0,1,7.9,4.6,14.71,14.71,0,0,1,4.7,12c-.4,4.5-2.7,8.9-7,13.19995Zm-6.1-6.1,6.7-6.69995c2-2,3-3.9,3.1-5.9a7.09529,7.09529,0,0,0-2.4-5.5,8.10616,8.10616,0,0,0-5.9-2.7,8.5302,8.5302,0,0,0-6,2.6l-6.8,6.8Z" style="fill:#505050"/><path d="M860.6,1374.7l15.8-15.80005,6,6L859.1,1388.2,822.9,1352l7.5-7.5Z" style="fill:#505050"/><path d="M895.9,1320.1l-14.3,14.3,9.7,9.7,16.8-16.80005,6,6-24.3,24.30005-36.2-36.2,24.2-24.19995,6,6-16.8,16.8,8.6,8.6,14.3-14.30005Z" style="fill:#505050"/><path d="M988,1235.2c3.6,4.19995,5.2,8.69995,4.9,13.5-.4,4.80005-2.7,9.4-6.9,13.6-4.6,4.6-9.9,6.7-15.6,6.30005s-11.4-3.4-16.9-8.9L951.3,1257.5a32.33553,32.33553,0,0,1-7.4-11,18.67887,18.67887,0,0,1-.8-11.4,21.23133,21.23133,0,0,1,5.8-10.1c4.2-4.19995,8.7-6.4,13.4-6.69995,4.8-.30005,9.4,1.4,13.8,5l-7.5,7.5c-2.5-2.19995-4.9-3.19995-7-3.1-2.2.1-4.4,1.19995-6.7,3.5-2.5,2.5-3.5,5.19995-2.9,8.3.5,3,2.7,6.4,6.4,10.2l2.7,2.69995c3.9,3.9,7.4,6.2,10.4,6.80005s5.8-.30005,8.3-2.9c2.3-2.30005,3.5-4.5,3.6-6.69995s-.9-4.5-2.9-6.80005Z" style="fill:#505050"/><path d="M1021,1211.4l-13.1,13.1,5,9.9-7.9,7.9-22.7-49.69995,6.9-6.9,49.7,22.6-7.9,7.9Zm-17.1,5,9-9-18.1-9Z" style="fill:#505050"/><path d="M1042.2,1176.1l.30005,8.1L1052.80005,1194.5l-7.5,7.5-36.2-36.19995,7.5-7.5,16.4,16.4-1.19995-7.80005-2.69995-21.1,9.19995-9.19995,3.19995,28.9,33.30005,6.9-8.9,8.9Z" style="fill:#505050"/><path d="M1086.80005,1129.1,1072.5,1143.4l9.69995,9.7L1099,1136.29993l6,6L1080.7,1166.6,1044.5,1130.4,1068.7,1106.20007l6,6L1058,1129l8.6,8.6,14.3-14.30005Z" style="fill:#505050"/><path d="M1134.2,1081.7,1119.8999,1096l9.7,9.69995,16.8-16.80005,6,6-24.3,24.30005L1092,1083,1116.2,1058.80005l6,6-16.80005,16.80005,8.6,8.6,14.3-14.30005Z" style="fill:#505050"/><path d="M1149.1,1050.80005,1143.4,1031.5l8.6-8.6,7.4,28.5,29.1,7.4-8.69995,8.69995-19.6-5.69995,5.69995,19.6-8.69995,8.7-7.4-29.1-28.5-7.4,8.6-8.6Z" style="fill:#505050"/><path d="M997.3,1392.5,983,1406.80005l9.7,9.69995L1009.5,1399.7l6,6L991.2,1430,955,1393.80005l24.2-24.19995,6,6-16.8,16.8,8.6,8.6,14.3-14.3Z" style="fill:#505050"/><path d="M1012.2,1361.6l-5.7-19.30005,8.6-8.6,7.4,28.5,29.1,7.4-8.7,8.69995-19.6-5.69995L1029,1392.2l-8.7,8.69995-7.4-29.1-28.5-7.4,8.6-8.6Z" style="fill:#505050"/><path d="M1071.30005,1335l-13.1,13.1,5,9.9-7.9,7.9-22.69995-49.69995,6.9-6.9,49.7,22.6-7.9,7.9Zm-17.1001,5,9-9-18.1-9Z" style="fill:#505050"/><path d="M1069.2,1279.6l35.5,17-17-35.5,9.80005-9.80005,36.19995,36.2-7.5,7.5-9.9-9.9-16.3-17.80005,17.19995,36.7-5.1,5.1-36.7-17.19995L1093.2,1308.19983l9.9,9.9-7.5,7.5-36.2-36.2Z" style="fill:#505050"/><path d="M1138,1257.7,1150.80005,1270.5l-7.5,7.5-36.19995-36.19995,14.1-14.1a23.40919,23.40919,0,0,1,8.69995-5.7,15.48963,15.48963,0,0,1,9-.5,16.0493,16.0493,0,0,1,7.9,4.6,14.70972,14.70972,0,0,1,4.69995,12c-.4,4.5-2.69995,8.9-7,13.19995Zm-6.1-6L1138.6,1245c2-2,3-3.9,3.1-5.9a7.09509,7.09509,0,0,0-2.4-5.5,8.10617,8.10617,0,0,0-5.9-2.7,8.5302,8.5302,0,0,0-6,2.6l-6.8,6.80005Z" style="fill:#505050"/></g></g><g id="Ebene_1" data-name="Ebene 1"><polygon points="113.4 368.5 524.4 368.5 524.4 779.5 113.4 779.5 113.4 368.5" style="fill:#0050aa"/><path d="M318.9,379.4c-107.4,0-194.6,87.2-194.6,194.7,0,107.4,87.2,194.6,194.6,194.6s194.6-87.1,194.6-194.6S426.3,379.4,318.9,379.4Z" style="fill:#e60a14"/><path d="M318.9,391.7c-100.7,0-182.3,81.7-182.3,182.4,0,100.6,81.7,182.3,182.3,182.3s182.3-81.7,182.3-182.3c0-100.7-81.7-182.4-182.3-182.4Z" style="fill:#fff000"/><polygon points="399 540.2 399 552.6 408.6 552.6 408.6 595.5 399 595.5 399 607.9 480.1 607.9 480.1 574.1 446.8 592.6 446.8 552.6 456.4 552.6 456.4 540.2 399 540.2" style="fill:#00539b"/><path d="M359.4,586.8h-2.7V561.2H359c11.9,0,11.9,25.6.4,25.6Zm7.7-46.6H312.4v12.4H322v43h-9.6V608h54.7c40.4-.1,40.8-67.8,0-67.8Z" style="fill:#00539b"/><polygon points="307.6 579.1 275.4 547 238.3 584.1 238.3 596.6 247.7 587.2 273.5 613.2 264 622.7 270.2 629 322 577.1 322 564.7 307.6 579.1" style="fill:#e60a14"/><path d="M270.7,501.7a20.4,20.4,0,1,1-20.4,20.4,20.35742,20.35742,0,0,1,20.4-20.4Z" style="fill:#e60a14"/><polygon points="157.3 540.2 214.7 540.2 214.7 552.6 205.1 552.6 205.1 592.6 238.3 574.1 238.3 607.9 157.3 607.9 157.3 595.5 166.9 595.5 166.9 552.6 157.3 552.6 157.3 540.2" style="fill:#00539b"/><path d="M1003.5,762.6H626.4V385.5h377.1V762.6Zm-394-394.1v411h411v-411Z" style="fill:#e3000f"/><polygon points="814 529.8 738.9 529.8 738.9 605 814 605 814 529.8" style="fill:#e3000f"/><polygon points="825.3 529.8 825.3 605 900.5 605 825.3 529.8" style="fill:#e3000f"/><polygon points="814 443.3 738.9 443.3 738.9 518.5 814 518.5 814 443.3" style="fill:#e3000f"/><polygon points="825.3 443.3 825.3 518.5 900.5 443.3 825.3 443.3" style="fill:#e3000f"/><polygon points="703.6 649.4 689.7 649.4 671.8 674.4 671.8 649.4 659.6 649.4 659.6 703.9 671.8 703.9 671.8 679.4 689.7 703.9 703.9 703.9 682.9 676.1 703.6 649.4" style="fill:#e3000f"/><path d="M774.2,691.5a9.79179,9.79179,0,0,1-7.8,4.1c-4.4,0-7.1-2.9-7.1-7.6V667.7H748.6v22.4c0,8.6,4.9,14.6,13.9,14.6a15.59941,15.59941,0,0,0,11.6-5.1v4.4h10.5v-36.3H774.1L774.2,691.5Z" style="fill:#e3000f"/><path d="M871,692.3a10.34485,10.34485,0,0,1-7.7,3.4c-5.6,0-9.6-4.1-9.6-10s4-10,9.6-10a10.3446,10.3446,0,0,1,7.7,3.4V692.3Zm0-20.8a15.94259,15.94259,0,0,0-11.1-4.6c-10.1,0-17.1,8.4-17.1,19.1,0,10.5,6.9,18.8,17.1,18.8a15.56017,15.56017,0,0,0,11.1-4.5V704h10.5V667.7H871v3.8Z" style="fill:#e3000f"/><path d="M730.7,692.3a10.34485,10.34485,0,0,1-7.7,3.4c-5.6,0-9.6-4.1-9.6-10s4-10,9.6-10a10.3446,10.3446,0,0,1,7.7,3.4V692.3Zm0-20.8a15.94259,15.94259,0,0,0-11.1-4.6c-10.1,0-17.1,8.4-17.1,19.1,0,10.5,6.9,18.8,17.1,18.8a15.56014,15.56014,0,0,0,11.1-4.5V704h10.5V667.7H730.7v3.8Z" style="fill:#e3000f"/><path d="M959.9,691.9a10.005,10.005,0,0,1-8.1,3.9c-5.6,0-9.6-4.1-9.6-10s4-10,9.6-10a10.0047,10.0047,0,0,1,8.1,3.9v12.2Zm0-42.5v22.4a16.08326,16.08326,0,0,0-11.5-4.9c-10.2,0-17.1,8.4-17.1,19.1s7.1,18.8,17.1,18.8a15.49978,15.49978,0,0,0,11.5-4.9v4.1h10.5v-54.5L959.9,649.4Z" style="fill:#e3000f"/><path d="M911.4,666.9a15.34429,15.34429,0,0,0-11.5,5.1v-4.4h-10.6v36.3h10.6V680.1a9.233,9.233,0,0,1,7.8-4.1c4.4,0,7,2.9,7,7.6v20.3h10.7v-22.4c-.1-8.59992-5-14.59992-14-14.59992Z" style="fill:#e3000f"/><path d="M812.7,657.4a9.96108,9.96108,0,0,1,5.7,1.6l1.7-8.1s-2.9-2.3-9.7-2.3c-8.9,0-14.4,5.1-14.4,14.7v4.3h-5.4v8.7H796v27.6h10.8v-27.6h12.3v-8.7H806.8v-3.3c0-4.6,2.1-6.9,5.9-6.9Z" style="fill:#e3000f"/><polygon points="825.2 703.9 836 703.9 836 649.4 825.2 649.4 825.2 703.9" style="fill:#e3000f"/><rect x="609.5" y="864.59998" width="411" height="411" style="fill:#00343d"/><path d="M866.4,1010.6a39.07153,39.07153,0,0,0-39,39.1v18.1a4.4,4.4,0,0,0,8.8,0v-18.1a30.25859,30.25859,0,0,1,30.2-30.3h91.5v70.9a30.25864,30.25864,0,0,1-30.2,30.30005h-30.4a4.43907,4.43907,0,0,0-4.4,4.4,4.52661,4.52661,0,0,0,4.4,4.5h30.4a39.15726,39.15726,0,0,0,39-39.19995v-79.8L866.4,1010.6Z" style="fill:#8fcb18"/><path d="M868,1084.5H840.5a13.10259,13.10259,0,0,0-13.2,13.1v18.69995A13.27306,13.27306,0,0,0,840.5,1129.6H868a13.27306,13.27306,0,0,0,13.2-13.30005V1097.6a13.1661,13.1661,0,0,0-13.2-13.1m4.3,31.80005a4.35378,4.35378,0,0,1-4.3,4.4H840.5a4.35374,4.35374,0,0,1-4.3-4.4V1097.6001a4.35379,4.35379,0,0,1,4.3-4.4H868a4.35375,4.35375,0,0,1,4.3,4.4Zm-51.6-27.4a4.35378,4.35378,0,0,1-4.3,4.4H801.1a4.332,4.332,0,0,0-4.3,4.30005v27.5a4.4,4.4,0,0,1-8.80005,0v-27.5a13.18736,13.18736,0,0,1,13.2-13.2h15.2a4.58032,4.58032,0,0,1,4.3,4.49987m-56-4.4h-27A13.18744,13.18744,0,0,0,724.5,1097.7v18.69995a13.18736,13.18736,0,0,0,13.2,13.2h26.9a4.4,4.4,0,0,0,0-8.80005H737.7a4.332,4.332,0,0,1-4.3-4.3v-5.4h31.3a13.30024,13.30024,0,0,0,0-26.59973m0,17.6H733.4v-4.4a4.26822,4.26822,0,0,1,4.3-4.30005h27a4.35374,4.35374,0,0,1,4.3,4.4,4.20718,4.20718,0,0,1-4.3,4.30005m-48.1,23a4.43907,4.43907,0,0,1-4.4,4.4h-44.5a4.33127,4.33127,0,0,1-4.1-2.9,4.5425,4.5425,0,0,1,1.3-4.9l35-28.4h-32.2a4.4,4.4,0,0,1,0-8.8h44.4a4.33127,4.33127,0,0,1,4.1,2.9,4.49593,4.49593,0,0,1-1.3,4.9l-35.6,28.4h32.9a4.43906,4.43906,0,0,1,4.4,4.4m90.9-114.5h-27a13.18745,13.18745,0,0,0-13.2,13.2v18.7A13.18736,13.18736,0,0,0,780.5,1055.7h26.9a4.4,4.4,0,1,0,0-8.80005H780.5a4.332,4.332,0,0,1-4.3-4.3v-5.4h31.3a13.18746,13.18746,0,0,0,13.2-13.2A13.35974,13.35974,0,0,0,807.5,1010.6m0,17.6H776.2v-4.4a4.26816,4.26816,0,0,1,4.3-4.3h27a4.35029,4.35029,0,0,1,0,8.7M760.7,1015a4.35378,4.35378,0,0,1-4.3,4.4H741.1a4.332,4.332,0,0,0-4.3,4.3V1051.2a4.4,4.4,0,1,1-8.80005,0v-27.5a13.18745,13.18745,0,0,1,13.2-13.2h15.2A4.58063,4.58063,0,0,1,760.7,1015m-93,57.1a4.43907,4.43907,0,0,0,4.4-4.4v-12h31.2a13.18744,13.18744,0,0,0,13.2-13.19995v-18.7a13.18745,13.18745,0,0,0-13.2-13.2H676.4a13.18746,13.18746,0,0,0-13.2,13.2v43.9a4.59532,4.59532,0,0,0,4.5,4.4m4.4-48.3a4.35378,4.35378,0,0,1,4.3-4.4h26.9a4.35375,4.35375,0,0,1,4.3,4.4v18.7a4.26822,4.26822,0,0,1-4.3,4.30005H672.1Z" style="fill:#fff"/><rect x="151.7" y="1060.59998" width="334.50002" height="7.30005" style="fill:#fff"/><polygon points="315.5 1051.4 320.3 1023.2 320.5 1023.2 325.5 1051.4 339.3 1051.4 352.3 1005.2 338.2 1005.2 332.5 1034.1 332.3 1034.1 326.9 1005.2 314.3 1005.2 308.8 1033.7 308.6 1033.7 303 1005.2 289 1005.2 301.6 1051.4 315.5 1051.4" style="fill:#fff"/><path d="M369.2,1020.7h.1l4.1,14.2h-8.7Zm-9.6,30.7,2.1-6.6h14.7l1.9,6.6H393l-16.8-46.2H362.3l-17,46.2Z" style="fill:#fff"/><path d="M411.3,1016.2H418c5.4,0,7,1.7,7,4.6,0,4.1-3.6,4.6-6.3,4.6h-7.4l0-9.2Zm0,19.1h7.6c5.6,0,6,4.6,6.4,9a34.00473,34.00473,0,0,0,1.2,7.1h14.2c-1.3-2.1-1.4-7.6-1.5-9.9-.5-5.80005-2.9-10-6.8-11.5,4.7-1.69995,6.9-6.8,6.9-11.6,0-8.7-7-13.2-15.1-13.2H397.1v46.2h14.2l0-16.1Z" style="fill:#fff"/><polygon points="463.4 1039.6 485.1 1015.5 485.1 1005.2 446.1 1005.2 446.1 1017 466.4 1017 444.9 1040.3 444.9 1051.4 486.2 1051.4 486.2 1039.6 463.4 1039.6" style="fill:#fff"/><path d="M173.2,1042.30005c-2.7,0-5.8-.6-6.8-3.4a8.96349,8.96349,0,0,1-.5-3H151.7c.1,14.80005,15.1,16.6,20.3,16.6,10.3,0,21.4-3.9,21.4-15.9,0-8.5-6.5-11.5-13-13.3s-13.1-2.5-13.4-5.8c0-2.6,3.2-3.1,5.1-3.1a7.08242,7.08242,0,0,1,4.2,1.2,3.57812,3.57812,0,0,1,1.7,3.7h13.5c-.4-11.3-9.3-15.1-19.3-15.1-9.5,0-18.6,4.6-18.6,15.3,0,9.3,8.3,11.3,15.7,13.4,8,2.30005,10,2.9,10,5.30005-.2,3.29993-3.7,4.1-6.1,4.1" style="fill:#fff"/><polygon points="258.1 1033.1 271.4 1033.1 271.4 1051.4 285.7 1051.4 285.7 1005.2 271.4 1005.2 271.4 1021.2 258.1 1021.2 258.1 1005.2 243.9 1005.2 243.9 1051.4 258.1 1051.4 258.1 1033.1" style="fill:#fff"/><path d="M218.9,1052.5c13.5,0,21.1-9.9,21.1-19.19995H226c-.8,4.30005-2.7,7.69995-7.5,7.69995-6.7,0-8.8-6.5-8.8-12.69995s2.1-12.7,8.8-12.7c5.9,0,7.2,5.1,7.4,6.8h13.8c-1.2-11.6-8.2-18.3-20.9-18.3-14.2,0-23.4,9.6-23.4,24.2.1,13.6,8.6,24.19995,23.5,24.19995" style="fill:#fff"/><path d="M173.3,1089.9q7.65,0,12,3.9c2.9,2.6,4.3,6.19995,4.3,10.80005,0,10.4-5.5,15.5-16.4,15.5h-9.7v15.1H151.7V1089.9Zm-1.7,21c4.1,0,6.2-1.9,6.2-5.6a5.8019,5.8019,0,0,0-1.7-4.5,6.43824,6.43824,0,0,0-4.5-1.5h-8.1v11.6Z" style="fill:#fff"/><path d="M214,1101.6a9.51542,9.51542,0,0,1,2.5.3v9.80005a19.136,19.136,0,0,0-4.1-.6,7.91811,7.91811,0,0,0-5.8,2.19995,7.31433,7.31433,0,0,0-2.3,5.5v16.5H193.5v-32.9H204v5.80005h.1a8.65917,8.65917,0,0,1,3.7-4.7A9.94009,9.94009,0,0,1,214,1101.6Z" style="fill:#fff"/><path d="M235.4,1101.30005a17.68211,17.68211,0,0,1,12.5,29.9c-3.2,3.3-7.4,4.9-12.5,4.9a16.76594,16.76594,0,0,1-17.3-17.4,16.9571,16.9571,0,0,1,4.9-12.5A16.57353,16.57353,0,0,1,235.4,1101.30005ZM228.9,1118.7a12.0797,12.0797,0,0,0,1.7,6.69995,5.595,5.595,0,0,0,4.9,2.5,5.46026,5.46026,0,0,0,4.9-2.6,14.02835,14.02835,0,0,0-.1-13.19995,5.84257,5.84257,0,0,0-4.9-2.5,5.40453,5.40453,0,0,0-4.7,2.4A10.89731,10.89731,0,0,0,228.9,1118.7Z" style="fill:#fff"/><path d="M290.1,1089.9v45.30005H279.8V1131.4h-.1a10.41687,10.41687,0,0,1-9.1,4.80005,13.14387,13.14387,0,0,1-10.7-4.9c-2.7-3.19995-4-7.69995-4-13.30005,0-4.9,1.3-8.9,3.8-12a12.38474,12.38474,0,0,1,10.1-4.69995,11.16656,11.16656,0,0,1,9.4,4.5h.1v-15.9Zm-23.4,28.4a11.88647,11.88647,0,0,0,1.8,7,5.55233,5.55233,0,0,0,4.8,2.5c4.3,0,6.4-3.1,6.4-9.19995a11.95816,11.95816,0,0,0-1.6-6.6,5.38211,5.38211,0,0,0-4.9-2.5,5.702,5.702,0,0,0-4.8,2.4A11.48791,11.48791,0,0,0,266.7,1118.30005Z" style="fill:#fff"/><path d="M307,1102.2V1121.5c0,3.80005,1.8,5.6,5.3,5.6a5.21569,5.21569,0,0,0,4.2-1.9A7.74191,7.74191,0,0,0,318.2,1120V1102.2H329v32.9H318.5v-4.5h-.1a11.35653,11.35653,0,0,1-4.4,4,12.06926,12.06926,0,0,1-5.6,1.5c-4.1,0-7.1-1.1-9.1-3.30005s-3-5.69995-3-10.4V1102.2Z" style="fill:#fff"/><path d="M345.9,1089.9v23.30005l9.8-11h12.5l-12.1,12.4,13.6,20.5h-13l-8.1-13.30005L345.8,1124.5V1135H335V1089.7h10.9Z" style="fill:#fff"/><path d="M386.7,1092.30005v10h6.7v7h-6.7v15a2.71884,2.71884,0,0,0,1,2.4,4.59748,4.59748,0,0,0,2.9.69995,26.20951,26.20951,0,0,0,2.8-.1v7.9c-2.2.19995-4.4.3-6.3.3a17.69539,17.69539,0,0,1-6.9-1.1,6.34248,6.34248,0,0,1-3.3-3.69995,19.31926,19.31926,0,0,1-.9-6.4v-15h-5.5v-7H376v-10l10.7-.00012Z" style="fill:#fff"/><path d="M409,1089.9v8.2H398.2v-8.2ZM409,1102.2v32.9H398.2v-32.9Z" style="fill:#fff"/><path d="M431.3,1101.30005a17.68212,17.68212,0,0,1,12.5,29.9c-3.2,3.3-7.4,4.9-12.5,4.9a16.76594,16.76594,0,0,1-17.3-17.4,16.95714,16.95714,0,0,1,4.9-12.5C422.1,1102.9,426.2,1101.30005,431.3,1101.30005ZM424.7,1118.7a12.07961,12.07961,0,0,0,1.7,6.69995,5.59508,5.59508,0,0,0,4.9,2.5,5.46028,5.46028,0,0,0,4.9-2.6,14.02824,14.02824,0,0,0-.1-13.19995,5.84257,5.84257,0,0,0-4.9-2.5,5.40459,5.40459,0,0,0-4.7,2.4A10.89724,10.89724,0,0,0,424.7,1118.7Z" style="fill:#fff"/><path d="M474.4,1101.30005c7.9,0,11.8,4.19995,11.8,12.5v21.4H475.4v-19.5c0-3.7-1.8-5.5-5.4-5.5a4.97077,4.97077,0,0,0-4.3,2,8.75416,8.75416,0,0,0-1.5,5.3v17.7H453.4v-32.9h10.5v4.5h.1a11.65216,11.65216,0,0,1,4.5-4A12.61227,12.61227,0,0,1,474.4,1101.30005Z" style="fill:#fff"/><rect x="113.4" y="864.59998" width="411.00002" height="411" style="fill:#003769"/><rect x="151.7" y="1060.59998" width="334.50002" height="7.30005" style="fill:#fff"/><polygon points="315.5 1051.4 320.3 1023.2 320.5 1023.2 325.5 1051.4 339.3 1051.4 352.3 1005.2 338.2 1005.2 332.5 1034.1 332.3 1034.1 326.9 1005.2 314.3 1005.2 308.8 1033.7 308.6 1033.7 303 1005.2 289 1005.2 301.6 1051.4 315.5 1051.4" style="fill:#fff"/><path d="M369.2,1020.7h.1l4.1,14.2h-8.7Zm-9.6,30.7,2.1-6.6h14.7l1.9,6.6H393l-16.8-46.2H362.3l-17,46.2Z" style="fill:#fff"/><path d="M411.3,1016.2H418c5.4,0,7,1.7,7,4.6,0,4.1-3.6,4.6-6.3,4.6h-7.4l0-9.2Zm0,19.1h7.6c5.6,0,6,4.6,6.4,9a34.00473,34.00473,0,0,0,1.2,7.1h14.2c-1.3-2.1-1.4-7.6-1.5-9.9-.5-5.80005-2.9-10-6.8-11.5,4.7-1.69995,6.9-6.8,6.9-11.6,0-8.7-7-13.2-15.1-13.2H397.1v46.2h14.2l0-16.1Z" style="fill:#fff"/><polygon points="463.4 1039.6 485.1 1015.5 485.1 1005.2 446.1 1005.2 446.1 1017 466.4 1017 444.9 1040.3 444.9 1051.4 486.2 1051.4 486.2 1039.6 463.4 1039.6" style="fill:#fff"/><path d="M173.2,1042.30005c-2.7,0-5.8-.6-6.8-3.4a8.96349,8.96349,0,0,1-.5-3H151.7c.1,14.80005,15.1,16.6,20.3,16.6,10.3,0,21.4-3.9,21.4-15.9,0-8.5-6.5-11.5-13-13.3s-13.1-2.5-13.4-5.8c0-2.6,3.2-3.1,5.1-3.1a7.08242,7.08242,0,0,1,4.2,1.2,3.57812,3.57812,0,0,1,1.7,3.7h13.5c-.4-11.3-9.3-15.1-19.3-15.1-9.5,0-18.6,4.6-18.6,15.3,0,9.3,8.3,11.3,15.7,13.4,8,2.30005,10,2.9,10,5.30005-.2,3.29993-3.7,4.1-6.1,4.1" style="fill:#fff"/><polygon points="258.1 1033.1 271.4 1033.1 271.4 1051.4 285.7 1051.4 285.7 1005.2 271.4 1005.2 271.4 1021.2 258.1 1021.2 258.1 1005.2 243.9 1005.2 243.9 1051.4 258.1 1051.4 258.1 1033.1" style="fill:#fff"/><path d="M218.9,1052.5c13.5,0,21.1-9.9,21.1-19.19995H226c-.8,4.30005-2.7,7.69995-7.5,7.69995-6.7,0-8.8-6.5-8.8-12.69995s2.1-12.7,8.8-12.7c5.9,0,7.2,5.1,7.4,6.8h13.8c-1.2-11.6-8.2-18.3-20.9-18.3-14.2,0-23.4,9.6-23.4,24.2.1,13.6,8.6,24.19995,23.5,24.19995" style="fill:#fff"/><path d="M173.3,1089.9q7.65,0,12,3.9c2.9,2.6,4.3,6.19995,4.3,10.80005,0,10.4-5.5,15.5-16.4,15.5h-9.7v15.1H151.7V1089.9Zm-1.7,21c4.1,0,6.2-1.9,6.2-5.6a5.8019,5.8019,0,0,0-1.7-4.5,6.43824,6.43824,0,0,0-4.5-1.5h-8.1v11.6Z" style="fill:#fff"/><path d="M214,1101.6a9.51542,9.51542,0,0,1,2.5.3v9.80005a19.136,19.136,0,0,0-4.1-.6,7.91811,7.91811,0,0,0-5.8,2.19995,7.31433,7.31433,0,0,0-2.3,5.5v16.5H193.5v-32.9H204v5.80005h.1a8.65917,8.65917,0,0,1,3.7-4.7A9.94009,9.94009,0,0,1,214,1101.6Z" style="fill:#fff"/><path d="M235.4,1101.30005a17.68211,17.68211,0,0,1,12.5,29.9c-3.2,3.3-7.4,4.9-12.5,4.9a16.76594,16.76594,0,0,1-17.3-17.4,16.9571,16.9571,0,0,1,4.9-12.5A16.57353,16.57353,0,0,1,235.4,1101.30005ZM228.9,1118.7a12.0797,12.0797,0,0,0,1.7,6.69995,5.595,5.595,0,0,0,4.9,2.5,5.46026,5.46026,0,0,0,4.9-2.6,14.02835,14.02835,0,0,0-.1-13.19995,5.84257,5.84257,0,0,0-4.9-2.5,5.40453,5.40453,0,0,0-4.7,2.4A10.89731,10.89731,0,0,0,228.9,1118.7Z" style="fill:#fff"/><path d="M290.1,1089.9v45.30005H279.8V1131.4h-.1a10.41687,10.41687,0,0,1-9.1,4.80005,13.14387,13.14387,0,0,1-10.7-4.9c-2.7-3.19995-4-7.69995-4-13.30005,0-4.9,1.3-8.9,3.8-12a12.38474,12.38474,0,0,1,10.1-4.69995,11.16656,11.16656,0,0,1,9.4,4.5h.1v-15.9Zm-23.4,28.4a11.88647,11.88647,0,0,0,1.8,7,5.55233,5.55233,0,0,0,4.8,2.5c4.3,0,6.4-3.1,6.4-9.19995a11.95816,11.95816,0,0,0-1.6-6.6,5.38211,5.38211,0,0,0-4.9-2.5,5.702,5.702,0,0,0-4.8,2.4A11.48791,11.48791,0,0,0,266.7,1118.30005Z" style="fill:#fff"/><path d="M307,1102.2V1121.5c0,3.80005,1.8,5.6,5.3,5.6a5.21569,5.21569,0,0,0,4.2-1.9A7.74191,7.74191,0,0,0,318.2,1120V1102.2H329v32.9H318.5v-4.5h-.1a11.35653,11.35653,0,0,1-4.4,4,12.06926,12.06926,0,0,1-5.6,1.5c-4.1,0-7.1-1.1-9.1-3.30005s-3-5.69995-3-10.4V1102.2Z" style="fill:#fff"/><path d="M345.9,1089.9v23.30005l9.8-11h12.5l-12.1,12.4,13.6,20.5h-13l-8.1-13.30005L345.8,1124.5V1135H335V1089.7h10.9Z" style="fill:#fff"/><path d="M386.7,1092.30005v10h6.7v7h-6.7v15a2.71884,2.71884,0,0,0,1,2.4,4.59748,4.59748,0,0,0,2.9.69995,26.20951,26.20951,0,0,0,2.8-.1v7.9c-2.2.19995-4.4.3-6.3.3a17.69539,17.69539,0,0,1-6.9-1.1,6.34248,6.34248,0,0,1-3.3-3.69995,19.31926,19.31926,0,0,1-.9-6.4v-15h-5.5v-7H376v-10l10.7-.00012Z" style="fill:#fff"/><path d="M409,1089.9v8.2H398.2v-8.2ZM409,1102.2v32.9H398.2v-32.9Z" style="fill:#fff"/><path d="M431.3,1101.30005a17.68212,17.68212,0,0,1,12.5,29.9c-3.2,3.3-7.4,4.9-12.5,4.9a16.76594,16.76594,0,0,1-17.3-17.4,16.95714,16.95714,0,0,1,4.9-12.5C422.1,1102.9,426.2,1101.30005,431.3,1101.30005ZM424.7,1118.7a12.07961,12.07961,0,0,0,1.7,6.69995,5.59508,5.59508,0,0,0,4.9,2.5,5.46028,5.46028,0,0,0,4.9-2.6,14.02824,14.02824,0,0,0-.1-13.19995,5.84257,5.84257,0,0,0-4.9-2.5,5.40459,5.40459,0,0,0-4.7,2.4A10.89724,10.89724,0,0,0,424.7,1118.7Z" style="fill:#fff"/><path d="M474.4,1101.30005c7.9,0,11.8,4.19995,11.8,12.5v21.4H475.4v-19.5c0-3.7-1.8-5.5-5.4-5.5a4.97077,4.97077,0,0,0-4.3,2,8.75416,8.75416,0,0,0-1.5,5.3v17.7H453.4v-32.9h10.5v4.5h.1a11.65216,11.65216,0,0,1,4.5-4A12.61227,12.61227,0,0,1,474.4,1101.30005Z" style="fill:#fff"/><rect x="113.4" y="263.60001" width="907.1" height="19.79999" style="fill:#9d9d9d"/><polygon points="557.6 238.7 570.8 162.4 571.1 162.4 584.6 238.7 622.2 238.7 657.3 113.4 619.2 113.4 603.6 191.8 603.2 191.8 588.5 113.4 554.5 113.4 539.4 190.8 539 190.8 523.7 113.4 485.8 113.4 519.9 238.7 557.6 238.7" style="fill:#9d9d9d"/><path d="M677.1,238.7l5.6-17.9h39.8l5.3,17.9h40l-45.6-125.3h-37.7l-46.2,125.3Zm26.2-83.4h.3l11.2,38.6H691.1Z" style="fill:#9d9d9d"/><path d="M817.5,195H838c15.3,0,16.3,12.5,17.4,24.4.5,6.5,1.2,13,3.2,19.3h38.6c-3.5-5.8-3.7-20.7-4.2-26.9-1.4-15.6-7.9-27.2-18.4-31.2,12.8-4.7,18.8-18.4,18.8-31.4,0-23.7-19-35.8-40.9-35.8H779V238.7h38.6l-.1-43.7Zm0-51.8h18.1c14.7,0,19.1,4.6,19.1,12.5,0,11.2-9.8,12.5-17,12.5h-20.2l.00006-25Z" style="fill:#9d9d9d"/><polygon points="958.9 206.6 1017.7 141.5 1017.7 113.4 911.9 113.4 911.9 145.5 966.8 145.5 908.5 208.5 908.5 238.7 1020.5 238.7 1020.5 206.6 958.9 206.6" style="fill:#9d9d9d"/><path d="M171.9,214c-7.2,0-15.6-1.6-18.4-9.1a22.86855,22.86855,0,0,1-1.4-8.3H113.5c.4,40,40.9,45.1,55.1,45.1,27.9,0,57.9-10.5,57.9-43.2,0-23-17.5-31.2-35.3-36.1-17.7-4.9-35.6-6.8-36.3-15.8,0-7,8.6-8.4,13.9-8.4,3.9,0,8.2.9,11.4,3.2a9.57377,9.57377,0,0,1,4.6,10h36.5c-1.1-30.5-25.1-40.9-52.3-40.9-25.8,0-50.5,12.5-50.5,41.4,0,25.3,22.6,30.7,42.5,36.3,21.6,6.1,27,7.9,27,14.4C187.8,211.9,178.2,214,171.9,214Z" style="fill:#9d9d9d"/><polygon points="402 189 438.2 189 438.2 238.7 476.8 238.7 476.8 113.4 438.2 113.4 438.2 156.9 402 156.9 402 113.4 363.4 113.4 363.4 238.7 402 238.7 402 189" style="fill:#9d9d9d"/><path d="M295.7,241.7c36.7,0,57.2-26.9,57.2-52.1H315c-2.3,11.8-7.4,20.9-20.4,20.9-18.1,0-23.9-17.6-23.9-34.4,0-16.9,5.8-34.4,23.9-34.4,16,0,19.5,13.9,20.2,18.4h37.6c-3.3-31.4-22.3-49.5-56.7-49.7-38.6,0-63.5,26.1-63.5,65.6C232.2,213.1,255.2,241.7,295.7,241.7Z" style="fill:#9d9d9d"/></g></svg>