<svg xmlns="http://www.w3.org/2000/svg" viewBox="0 0 24 24"><path d="M12 0A12 12 0 110 12 12 12 0 0112 0zm0 1.09A10.91 10.91 0 1022.91 12 10.92 10.92 0 0012 1.09zm1 14.71v1.91h-2.07V15.8zm-.81-9.25a3.4 3.4 0 012.4.84 2.92 2.92 0 01.93 2.24 3 3 0 01-.3 1.4 4.38 4.38 0 01-1.09 1.18 4 4 0 00-1 1.12 3 3 0 00-.28 1.42h-1.69v-.06a4.42 4.42 0 01.31-1.91 3 3 0 011-1.23 4.17 4.17 0 00.87-.86 1.69 1.69 0 00.26-1 1.73 1.73 0 00-.45-1.2A1.36 1.36 0 0012.09 8a1.69 1.69 0 00-1.35.56 2.56 2.56 0 00-.48 1.71H8.5a3.77 3.77 0 011-2.69 3.52 3.52 0 012.67-1.03z"/></svg>