<svg xmlns="http://www.w3.org/2000/svg" viewBox="0 0 24 24"><path d="M12.154 7a3.14 3.14 0 012.199.777 2.64 2.64 0 01.853 2.051 2.65 2.65 0 01-.272 1.28 3.974 3.974 0 01-1.001 1.086A3.695 3.695 0 0013 13.216a2.74 2.74 0 00-.259 1.302H11.23v-.056a4.102 4.102 0 01.28-1.75 2.77 2.77 0 01.91-1.12 4.079 4.079 0 00.799-.791 1.584 1.584 0 00.237-.917 1.578 1.578 0 00-.413-1.1 1.262 1.262 0 00-.959-.454 1.54 1.54 0 00-1.238.518 2.374 2.374 0 00-.442 1.568h-1.61a3.45 3.45 0 01.896-2.464A3.22 3.22 0 0112.154 7zm.742 8.484v1.75H11.02v-1.75z"/><path d="M12 23a11 11 0 1111-11 11.012 11.012 0 01-11 11zm0-21a10 10 0 1010 10A10.011 10.011 0 0012 2z"/></svg>