<svg xmlns="http://www.w3.org/2000/svg" viewBox="0 0 16.99 19.51"><path d="M18,6A8.41,8.41,0,0,0,12,3.52l1.77-1.78L13,1l-3,3,3,3,.71-.71L12,4.51h0A7.5,7.5,0,1,1,4.5,12h-1A8.5,8.5,0,1,0,18,6Z" transform="translate(-3.5 -0.99)"/><polygon points="7.18 5.32 4.88 3.02 7.18 0.71 6.48 0 3.46 3.02 6.48 6.03 7.18 5.32"/><path d="M10.33,15V9.05h-1c-.12.79-.68,1.18-1.66,1.18H7.63v.91H9.12V15Z" transform="translate(-3.5 -0.99)"/><path d="M13.9,14.12a1,1,0,0,1-.67-.24,1,1,0,0,1-.31-.65H11.71a1.8,1.8,0,0,0,.63,1.37,2.4,2.4,0,0,0,1.61.52,2.15,2.15,0,0,0,1.54-.62A2,2,0,0,0,16.13,13a2.07,2.07,0,0,0-.5-1.46A1.69,1.69,0,0,0,14.3,11a1.61,1.61,0,0,0-1.17.45h0l.23-1.35h2.46v-1H12.49l-.59,3.29H13a1.14,1.14,0,0,1,.37-.36,1,1,0,0,1,.53-.12,1,1,0,0,1,.76.32,1.2,1.2,0,0,1,.28.8,1.22,1.22,0,0,1-.29.81A.94.94,0,0,1,13.9,14.12Z" transform="translate(-3.5 -0.99)"/></svg>