<svg xmlns="http://www.w3.org/2000/svg" viewBox="0 0 24 24"><path d="M12 3.5a.5.5 0 01.5.47l-.007.051-.002.023-.083.923.914.152a8.035 8.035 0 016.654 7.436l.024.29v2.57l.293.292.707.707V19h-7.365l-.262.6a1.496 1.496 0 01-2.746 0l-.262-.6H3v-2.586l.707-.707.293-.293v-2.429l.024-.43a8.035 8.035 0 016.654-7.436l.914-.152-.083-.923-.008-.073A.5.5 0 0112 3.5m0-1A1.5 1.5 0 0010.5 4c0 .046.01.088.013.133A8.989 8.989 0 003.025 12.5H3V15l-1 1v4h7.711a2.496 2.496 0 004.578 0H22v-4l-1-1v-2.5h-.025a8.988 8.988 0 00-7.488-8.367c.004-.045.013-.087.013-.133A1.5 1.5 0 0012 2.5z"/></svg>